<svg width="110" height="135" viewBox="0 0 110 135" fill="none" xmlns="http://www.w3.org/2000/svg">
<path fill-rule="evenodd" clip-rule="evenodd" d="M35.809 16.2499C34.3871 16.246 32.9652 16.4218 31.5981 16.8007C28.809 17.5663 26.2583 19.1679 24.3715 21.3593C22.4965 23.5312 21.2777 26.2616 20.8363 29.0937C20.6059 30.582 20.5824 32.0976 20.7348 33.5976C20.8285 34.457 21.5981 35.082 22.4536 34.9882C23.309 34.8984 23.938 34.1328 23.8481 33.2773C23.7192 32.0429 23.7348 30.7968 23.9262 29.5742C24.2778 27.3164 25.2426 25.1328 26.7348 23.3984C28.2231 21.6796 30.2309 20.414 32.4223 19.8125C34.6606 19.1953 37.0512 19.2617 39.309 19.8125C41.7074 20.3906 43.9379 21.4883 46.1488 22.5859C46.1488 22.5898 54.3011 26.664 54.3011 26.664C54.7425 26.8828 55.2581 26.8828 55.7034 26.664L63.8518 22.5859C66.0588 21.4882 68.2854 20.3906 70.6838 19.8125C72.9377 19.2617 75.34 19.1953 77.5705 19.8125C79.7736 20.4141 81.7814 21.6797 83.2697 23.3984C84.758 25.1328 85.7189 27.3164 86.0744 29.5781C86.2619 30.8008 86.2853 32.0429 86.1564 33.2773C86.0666 34.1328 86.6877 34.8984 87.5509 34.9921C88.4064 35.082 89.172 34.457 89.2618 33.5976C89.422 32.0937 89.3907 30.582 89.1603 29.0898C88.711 26.2617 87.5041 23.5312 85.6369 21.3593C83.7463 19.1679 81.1916 17.5663 78.3986 16.8007C75.6564 16.0429 72.7189 16.1015 69.9494 16.7695C67.3244 17.4062 64.8752 18.5898 62.4572 19.7929L55.0002 23.5195L47.5432 19.7929C45.1252 18.5898 42.6682 17.4062 40.0471 16.7695C38.6604 16.4335 37.2348 16.2539 35.809 16.2499ZM51.875 30.3119C51.0118 30.3119 50.3125 31.0112 50.3125 31.8744V39.6908H42.4961C41.6329 39.6908 40.9375 40.3823 40.9375 41.2455V47.4955C40.9375 48.3627 41.6328 49.0619 42.4961 49.0619H50.3125V56.8744C50.3125 57.7377 51.0118 58.4408 51.875 58.4408H58.125C58.9883 58.4408 59.6875 57.7377 59.6875 56.8744V49.0619H67.5039C68.3672 49.0619 69.0625 48.3627 69.0625 47.4955V41.2455C69.0625 40.3823 68.3672 39.6908 67.5039 39.6908H59.6875V31.8744C59.6875 31.0112 58.9883 30.3119 58.125 30.3119H51.875ZM53.4336 33.433H56.5586V41.2455C56.5586 42.1088 57.2618 42.8119 58.125 42.8119H65.9375V45.9369H58.125C57.2618 45.9369 56.5586 46.6323 56.5586 47.4955V55.308H53.4336V47.4955C53.4336 46.6323 52.7383 45.9369 51.875 45.9369H44.0625V42.8119H51.875C52.7383 42.8119 53.4336 42.1088 53.4336 41.2455V33.433ZM17.4996 36.5619C14.0348 36.5619 11.2496 39.3471 11.2496 42.8119V69.3739C11.2496 73.9794 13.2418 78.1239 16.7262 81.1469L22.1754 85.8813C24.1637 87.6079 25.3082 90.1157 25.3082 92.7524L25.3121 102.186C25.3121 103.049 26.0114 103.749 26.8746 103.749H45.6246C46.4879 103.749 47.1871 103.049 47.1871 102.186V81.874C47.1871 78.6474 45.8902 75.1826 43.6051 72.8974L31.2931 60.5924C29.2384 58.5377 26.1369 58.2057 23.7462 59.6003L23.7501 42.8113C23.7501 39.3465 20.9566 36.5619 17.4996 36.5619ZM92.4996 36.5619C89.0426 36.5619 86.2496 39.3471 86.2496 42.8119V59.6049C83.8551 58.2143 80.7496 58.5463 78.6949 60.5971L66.3939 72.8981C64.1087 75.1833 62.8119 78.6481 62.8119 81.8747V102.187C62.8119 103.05 63.5112 103.749 64.3744 103.749H83.1244C83.9877 103.749 84.6869 103.05 84.6869 102.187V92.7531C84.6869 90.1164 85.8353 87.6086 87.8236 85.882L93.2728 81.1476C96.7572 78.1242 98.7494 73.9796 98.7494 69.3746V42.8126C98.7494 39.3478 95.9644 36.5619 92.4996 36.5619ZM17.4996 39.6869C19.2262 39.6869 20.6246 41.0775 20.6246 42.8119L20.6207 64.9289V64.9875C20.6129 66.593 21.2262 68.2023 22.4605 69.4367L31.7183 78.6945C32.3277 79.3039 33.3199 79.3039 33.9292 78.6945C34.5386 78.0852 34.5386 77.0968 33.9292 76.4836L24.6675 67.2258C23.4448 65.9992 23.4448 64.0305 24.6675 62.8039C25.8941 61.5773 27.8589 61.5773 29.0855 62.8039L41.3945 75.1089C43.1133 76.8277 44.0625 79.4448 44.0625 81.8745V100.625H28.4375L28.4336 92.7534C28.4336 89.2143 26.8984 85.8393 24.2266 83.519L18.7735 78.7885C15.9844 76.3705 14.3751 73.0619 14.3751 69.3744V42.8124C14.3751 41.078 15.7652 39.6869 17.4996 39.6869ZM92.4996 39.6869C94.2301 39.6869 95.6246 41.0775 95.6246 42.8119V69.3739C95.6246 73.0614 94.0113 76.37 91.2223 78.788L85.7731 83.5185C83.1012 85.8388 81.5622 89.2138 81.5622 92.7529V100.624H65.9372V81.874C65.9372 79.4443 66.8825 76.8271 68.6052 75.1084L80.9062 62.8074C82.1328 61.5847 84.1015 61.5847 85.3281 62.8074C86.5547 64.0301 86.5547 66.0027 85.3281 67.2293C85.3281 67.2254 76.0625 76.4871 76.0625 76.4871C75.4532 77.0965 75.4532 78.0887 76.0625 78.698C76.6719 79.3073 77.6641 79.3074 78.2734 78.698L87.539 69.4363C88.7695 68.2058 89.3828 66.5965 89.3749 64.9871V42.8111C89.3749 41.0767 90.773 39.6869 92.4996 39.6869ZM27.4686 43.6557C27.1718 43.6831 26.8749 43.8003 26.6249 44.0034C25.9569 44.5503 25.8554 45.5346 26.3983 46.2026C30.1092 50.7338 34.8905 54.2182 39.4453 57.8976C44.5234 62.007 49.3398 66.4288 53.8753 71.1476C54.1722 71.4562 54.5824 71.6281 55.0081 71.6281C55.43 71.6281 55.8402 71.4562 56.1292 71.1476C60.6526 66.4288 65.4769 62.007 70.5552 57.8976C75.1099 54.2179 79.899 50.7335 83.5942 46.2026C84.145 45.5307 84.0434 44.5503 83.3755 43.9995C82.7036 43.4565 81.7232 43.5581 81.1724 44.2261C77.6099 48.5894 72.9771 51.9253 68.5904 55.4601C63.8287 59.3156 59.2896 63.4406 55.0004 67.8191C50.7113 63.4402 46.1723 59.3191 41.4064 55.4671C37.0236 51.9241 32.3908 48.5882 28.8204 44.2251C28.4844 43.8071 27.9687 43.6128 27.4686 43.6557Z" fill="black"/>
</svg>
