<?xml version="1.0" encoding="UTF-8" standalone="no"?>
<svg
   xmlns:dc="http://purl.org/dc/elements/1.1/"
   xmlns:cc="http://creativecommons.org/ns#"
   xmlns:rdf="http://www.w3.org/1999/02/22-rdf-syntax-ns#"
   xmlns:svg="http://www.w3.org/2000/svg"
   xmlns="http://www.w3.org/2000/svg"
   viewBox="0 0 666.66669 666.66669"
   height="666.66669"
   width="666.66669"
   xml:space="preserve"
   id="svg2"
   version="1.1"><metadata
     id="metadata8"><rdf:RDF><cc:Work
         rdf:about=""><dc:format>image/svg+xml</dc:format><dc:type
           rdf:resource="http://purl.org/dc/dcmitype/StillImage" /></cc:Work></rdf:RDF></metadata><defs
     id="defs6"><clipPath
       id="clipPath60"
       clipPathUnits="userSpaceOnUse"><path
         id="path58"
         d="M 4631.24,0 H 129.945 V 5000 H 4631.24 Z" /></clipPath><clipPath
       id="clipPath148"
       clipPathUnits="userSpaceOnUse"><path
         id="path146"
         d="m 1950.69,2574.58 c 0,0 57.71,-284.14 -27.69,-762.15 l -4.05,-1.42 c -94.34,-33.03 -198.93,-17.15 -278.93,42.36 v 0 c 0,0 121.68,508.09 13.87,723.13 z" /></clipPath><clipPath
       id="clipPath162"
       clipPathUnits="userSpaceOnUse"><path
         id="path160"
         d="M 4631.24,0 H 129.945 V 5000 H 4631.24 Z" /></clipPath></defs><g
     transform="matrix(1.3333333,0,0,-1.3333333,0,666.66667)"
     id="g10"><g
       transform="scale(0.1)"
       id="g12"><path
         id="path16"
         style="fill:#599dda;fill-opacity:1;fill-rule:nonzero;stroke:none"
         d="m 4542.27,2039.74 h -780.15 c -51.75,0 -93.71,41.95 -93.71,93.7 v 420.1 c 0,51.76 41.96,93.71 93.71,93.71 h 780.15 c 51.75,0 93.7,-41.95 93.7,-93.71 v -420.1 c 0,-51.75 -41.95,-93.7 -93.7,-93.7" /><path
         id="path18"
         style="fill:none;stroke:#9bd8f5;stroke-width:10;stroke-linecap:butt;stroke-linejoin:miter;stroke-miterlimit:10;stroke-dasharray:none;stroke-opacity:1"
         d="m 3782.48,2466.37 h 280.61" /><path
         id="path20"
         style="fill:none;stroke:#9bd8f5;stroke-width:10;stroke-linecap:butt;stroke-linejoin:miter;stroke-miterlimit:10;stroke-dasharray:none;stroke-opacity:1"
         d="m 3782.48,2408.25 h 280.61" /><path
         id="path22"
         style="fill:none;stroke:#9bd8f5;stroke-width:10;stroke-linecap:butt;stroke-linejoin:miter;stroke-miterlimit:10;stroke-dasharray:none;stroke-opacity:1"
         d="m 3782.48,2350.13 h 280.61" /><path
         id="path24"
         style="fill:none;stroke:#9bd8f5;stroke-width:10;stroke-linecap:butt;stroke-linejoin:miter;stroke-miterlimit:10;stroke-dasharray:none;stroke-opacity:1"
         d="m 3782.48,2292.01 h 217.04" /><path
         id="path26"
         style="fill:none;stroke:#9bd8f5;stroke-width:10;stroke-linecap:butt;stroke-linejoin:miter;stroke-miterlimit:10;stroke-dasharray:none;stroke-opacity:1"
         d="m 3782.48,2233.89 h 217.04" /><path
         id="path28"
         style="fill:none;stroke:#9bd8f5;stroke-width:10;stroke-linecap:butt;stroke-linejoin:miter;stroke-miterlimit:10;stroke-dasharray:none;stroke-opacity:1"
         d="m 3782.48,2175.77 h 217.04" /><path
         id="path30"
         style="fill:none;stroke:#9bd8f5;stroke-width:10;stroke-linecap:butt;stroke-linejoin:miter;stroke-miterlimit:10;stroke-dasharray:none;stroke-opacity:1"
         d="m 4350.77,2558.04 c 9.3,-40.64 13.93,-166.78 13.93,-166.78 l -9.43,-23.49" /><path
         id="path32"
         style="fill:none;stroke:#9bd8f5;stroke-width:10;stroke-linecap:butt;stroke-linejoin:miter;stroke-miterlimit:10;stroke-dasharray:none;stroke-opacity:1"
         d="m 4397.96,2551.16 c 2.72,-33.38 12.61,-171.85 12.61,-171.85" /><path
         id="path34"
         style="fill:none;stroke:#9bd8f5;stroke-width:10;stroke-linecap:butt;stroke-linejoin:miter;stroke-miterlimit:10;stroke-dasharray:none;stroke-opacity:1"
         d="m 4444.78,2515.73 c 0,0 5.24,-76.03 8.36,-129.35 l 15.72,-10.39" /><path
         id="path36"
         style="fill:none;stroke:#9bd8f5;stroke-width:10;stroke-linecap:butt;stroke-linejoin:miter;stroke-miterlimit:10;stroke-dasharray:none;stroke-opacity:1"
         d="m 4484.35,2473.8 c -14.36,83.58 -39.57,41.93 -39.57,41.93 l -5.28,31.34 c -3.6,23.16 -34.73,30.65 -41.54,4.09 0,0 -4.22,35.48 -18.05,40.18 -30.08,10.22 -29.14,-33.3 -29.14,-33.3 -38.88,7.57 -36.08,-46.36 -36.08,-46.36 0,0 10.29,-149.76 -4.75,-182.18 -7.65,6.37 -26.6,19.89 -32.33,26.75 -16.02,19.19 -22.67,42.11 -48.71,45.93 -32.98,4.83 -26.24,-15.78 -19.27,-23.16 6.97,-7.39 51.78,-91.63 56.2,-110.44 7.92,-33.65 6.67,-36.51 15.36,-57.37 1.23,-2.96 2.68,-5.86 4.27,-8.64 20.69,-36.28 34.23,-55.24 112.87,-54.36 69.4,0.77 130.02,42.77 101.61,222.56 -7.31,46.28 -9.46,67.38 -15.59,103.03 z" /><path
         id="path38"
         style="fill:none;stroke:#9bd8f5;stroke-width:10;stroke-linecap:butt;stroke-linejoin:miter;stroke-miterlimit:10;stroke-dasharray:none;stroke-opacity:1"
         d="m 4311.38,2327.51 c 0,0 61.09,-30.48 48.89,-106.58" /><path
         id="path40"
         style="fill:none;stroke:#9bd8f5;stroke-width:10;stroke-linecap:butt;stroke-linejoin:miter;stroke-miterlimit:10;stroke-dasharray:none;stroke-opacity:1"
         d="m 4462.06,2311.99 c 0,0 -54.1,-39.67 -42.32,-112.33" /><path
         id="path42"
         style="fill:#63afe4;fill-opacity:1;fill-rule:nonzero;stroke:none"
         d="m 712.918,3684.44 c 5.625,-13.05 -0.398,-28.19 -13.449,-33.82 -13.055,-5.62 -28.196,0.4 -33.821,13.46 -5.621,13.05 0.399,28.19 13.454,33.81 13.05,5.63 28.195,-0.4 33.816,-13.45" /><path
         id="path44"
         style="fill:#63afe4;fill-opacity:1;fill-rule:nonzero;stroke:none"
         d="m 785.711,3715.8 c 22.945,-53.25 -1.625,-115.02 -54.883,-137.97 -53.254,-22.94 -115.023,1.63 -137.969,54.88 -22.945,53.26 1.625,115.03 54.879,137.97 53.254,22.95 115.028,-1.62 137.973,-54.88 z m -135.281,135.84 -3.633,-30.96 c -0.215,-1.84 -1.481,-3.35 -3.246,-3.91 -4.535,-1.44 -9.051,-3.07 -13.52,-4.99 -8.437,-3.64 -16.371,-7.96 -23.765,-12.87 -1.653,-1.1 -3.774,-1.06 -5.364,0.12 l -21.027,15.67 c -8.582,6.4 -20.727,4.62 -27.121,-3.96 l -37.121,-49.82 c -6.399,-8.58 -4.621,-20.72 3.961,-27.12 l 22.914,-17.08 c 1.531,-1.14 2.18,-3.07 1.699,-4.92 -3.73,-14.31 -5.277,-29.21 -4.633,-44.24 0.082,-1.95 -1.004,-3.74 -2.793,-4.51 l -20.476,-8.82 c -9.828,-4.24 -14.367,-15.64 -10.129,-25.47 l 24.582,-57.06 c 4.234,-9.83 15.64,-14.36 25.469,-10.13 l 20.476,8.82 c 1.789,0.77 3.836,0.33 5.195,-1.06 11.95,-12.29 25.786,-22.3 40.868,-29.78 1.777,-0.88 2.824,-2.74 2.593,-4.72 l -1.867,-15.89 c -1.246,-10.63 6.363,-20.26 16.992,-21.51 l 61.704,-7.24 c 10.632,-1.25 20.261,6.36 21.511,16.99 l 2.125,18.15 c 0.227,1.91 1.594,3.47 3.457,3.98 6.582,1.78 13.121,3.93 19.567,6.7 10.375,4.47 19.886,10.08 28.648,16.46 1.672,1.21 3.906,1.23 5.563,-0.01 l 11.195,-8.34 c 8.582,-6.39 20.726,-4.62 27.121,3.96 l 37.121,49.82 c 6.395,8.58 4.621,20.73 -3.961,27.12 l -16.746,12.48 c -1.476,1.1 -2.141,2.94 -1.75,4.74 3.535,16.31 4.363,33.25 2.242,50.22 -0.261,2.08 0.836,4.07 2.762,4.9 l 16.781,7.23 c 9.828,4.24 14.364,15.64 10.129,25.47 l -24.582,57.06 c -4.234,9.83 -15.641,14.37 -25.469,10.13 l -25.214,-10.86 c -1.649,-0.71 -3.536,-0.39 -4.891,0.78 -11.242,9.76 -23.793,17.74 -37.234,23.74 -1.879,0.84 -3.004,2.75 -2.766,4.8 l 2.84,24.17 c 1.246,10.63 -6.364,20.26 -16.992,21.51 l -61.707,7.24 c -10.629,1.25 -20.258,-6.36 -21.508,-16.99" /><path
         id="path46"
         style="fill:#63afe4;fill-opacity:1;fill-rule:nonzero;stroke:none"
         d="m 928.582,3986.41 c 7.934,-7.87 7.988,-20.68 0.121,-28.62 -7.867,-7.93 -20.68,-7.98 -28.613,-0.12 -7.934,7.87 -7.988,20.68 -0.121,28.62 7.867,7.93 20.679,7.98 28.613,0.12" /><path
         id="path48"
         style="fill:#63afe4;fill-opacity:1;fill-rule:nonzero;stroke:none"
         d="m 972.457,4030.65 c 32.373,-32.1 32.593,-84.36 0.492,-116.73 -32.101,-32.37 -84.363,-32.59 -116.734,-0.49 -32.371,32.1 -32.594,84.36 -0.492,116.73 32.101,32.37 84.363,32.59 116.734,0.49 z m -138.543,59.34 6.441,-23.65 c 0.383,-1.4 -0.097,-2.87 -1.218,-3.8 -2.887,-2.38 -5.699,-4.9 -8.395,-7.61 -5.086,-5.13 -9.601,-10.61 -13.551,-16.36 -0.882,-1.29 -2.441,-1.88 -3.949,-1.49 l -19.933,5.26 c -8.137,2.14 -16.473,-2.72 -18.618,-10.86 l -12.445,-47.23 c -2.141,-8.14 2.719,-16.47 10.856,-18.62 l 21.722,-5.72 c 1.453,-0.38 2.496,-1.6 2.688,-3.09 1.476,-11.53 4.726,-22.86 9.613,-33.63 0.629,-1.39 0.363,-3.02 -0.715,-4.1 l -12.344,-12.45 c -5.925,-5.98 -5.882,-15.62 0.09,-21.55 l 34.684,-34.39 c 5.976,-5.93 15.625,-5.89 21.551,0.09 l 12.339,12.44 c 1.079,1.09 2.704,1.37 4.106,0.75 12.316,-5.45 25.348,-8.69 38.543,-9.71 1.555,-0.12 2.867,-1.17 3.277,-2.68 l 3.309,-12.14 c 2.211,-8.12 10.586,-12.91 18.707,-10.7 l 47.125,12.84 c 8.117,2.21 12.906,10.59 10.695,18.71 l -3.777,13.86 c -0.399,1.46 0.14,3 1.351,3.91 4.278,3.24 8.418,6.72 12.301,10.64 6.253,6.31 11.543,13.19 16.063,20.41 0.86,1.38 2.48,2.05 4.06,1.63 l 10.61,-2.79 c 8.14,-2.15 16.47,2.71 18.62,10.85 l 12.44,47.23 c 2.14,8.14 -2.72,16.47 -10.85,18.62 l -15.88,4.18 c -1.4,0.37 -2.43,1.52 -2.67,2.94 -2.21,12.93 -6.58,25.53 -13.11,37.28 -0.8,1.44 -0.59,3.22 0.57,4.39 l 10.12,10.2 c 5.92,5.98 5.88,15.62 -0.09,21.55 l -34.684,34.39 c -5.976,5.93 -15.625,5.89 -21.55,-0.09 l -15.196,-15.32 c -0.996,-1.01 -2.465,-1.33 -3.797,-0.87 -11.066,3.82 -22.562,5.96 -34.125,6.38 -1.617,0.06 -3,1.13 -3.425,2.69 l -5.032,18.46 c -2.211,8.12 -10.586,12.91 -18.707,10.7 l -47.125,-12.84 c -8.117,-2.22 -12.906,-10.59 -10.695,-18.71" /><path
         id="path50"
         style="fill:#63afe4;fill-opacity:1;fill-rule:nonzero;stroke:none"
         d="m 2570.25,3615.38 c 7.93,-7.87 7.98,-20.68 0.12,-28.61 -7.87,-7.93 -20.68,-7.99 -28.62,-0.12 -7.93,7.87 -7.99,20.68 -0.12,28.61 7.87,7.94 20.68,7.99 28.62,0.12" /><path
         id="path52"
         style="fill:#63afe4;fill-opacity:1;fill-rule:nonzero;stroke:none"
         d="m 2614.12,3659.63 c 32.37,-32.1 32.59,-84.36 0.49,-116.74 -32.1,-32.37 -84.36,-32.59 -116.73,-0.49 -32.37,32.1 -32.59,84.37 -0.49,116.74 32.1,32.37 84.36,32.59 116.73,0.49 z m -138.54,59.34 6.44,-23.65 c 0.38,-1.4 -0.1,-2.87 -1.22,-3.8 -2.89,-2.38 -5.7,-4.9 -8.39,-7.61 -5.09,-5.13 -9.6,-10.61 -13.56,-16.37 -0.88,-1.28 -2.44,-1.88 -3.94,-1.48 l -19.94,5.25 c -8.14,2.15 -16.47,-2.71 -18.62,-10.85 l -12.44,-47.23 c -2.14,-8.14 2.72,-16.48 10.85,-18.62 l 21.73,-5.72 c 1.45,-0.39 2.49,-1.6 2.68,-3.09 1.48,-11.53 4.73,-22.86 9.62,-33.63 0.63,-1.4 0.36,-3.02 -0.72,-4.11 l -12.34,-12.44 c -5.92,-5.98 -5.88,-15.63 0.09,-21.55 l 34.68,-34.39 c 5.98,-5.93 15.63,-5.89 21.55,0.09 l 12.34,12.44 c 1.08,1.09 2.71,1.37 4.11,0.75 12.32,-5.45 25.35,-8.69 38.54,-9.71 1.56,-0.12 2.87,-1.18 3.28,-2.68 l 3.31,-12.14 c 2.21,-8.12 10.58,-12.91 18.7,-10.7 l 47.13,12.84 c 8.12,2.21 12.91,10.59 10.7,18.71 l -3.78,13.85 c -0.4,1.47 0.14,3.01 1.35,3.92 4.28,3.23 8.42,6.72 12.3,10.64 6.26,6.3 11.54,13.18 16.06,20.41 0.86,1.38 2.49,2.04 4.06,1.63 l 10.61,-2.8 c 8.14,-2.14 16.48,2.72 18.62,10.86 l 12.44,47.23 c 2.15,8.13 -2.71,16.47 -10.85,18.61 l -15.88,4.19 c -1.4,0.36 -2.42,1.51 -2.67,2.94 -2.21,12.93 -6.58,25.53 -13.11,37.28 -0.8,1.44 -0.58,3.22 0.58,4.39 l 10.11,10.2 c 5.93,5.97 5.89,15.62 -0.09,21.55 l -34.68,34.39 c -5.98,5.92 -15.62,5.88 -21.55,-0.09 l -15.2,-15.33 c -0.99,-1 -2.46,-1.32 -3.79,-0.86 -11.07,3.81 -22.56,5.95 -34.13,6.38 -1.61,0.06 -3,1.12 -3.42,2.68 l -5.03,18.47 c -2.22,8.12 -10.59,12.91 -18.71,10.69 l -47.13,-12.84 c -8.11,-2.21 -12.9,-10.58 -10.69,-18.7" /><g
         id="g54"><g
           clip-path="url(#clipPath60)"
           id="g56"><path
             id="path62"
             style="fill:#bcbbb4;fill-opacity:1;fill-rule:nonzero;stroke:none"
             d="m 2252.21,176.969 c 0,0 98.11,-483.11 -1.25,-1400.619 -1.32,-12.19 -10.43,-15.59 -15.67,-5.77 -16.26,30.52 -76.42,55.71 -122.96,65.14 -80.97,16.4 -56.83,43.85 -104.88,126.95 -69.06,119.432 -125.89,341.26 -136.1,762.9 -13.26,548.071 380.86,451.399 380.86,451.399" /><path
             id="path64"
             style="fill:#e5e2da;fill-opacity:1;fill-rule:nonzero;stroke:none"
             d="m 2113.9,173.242 c -9.71,124.668 33.96,244.578 97.53,267.848 63.57,23.262 122.98,-58.93 132.69,-183.602 9.71,-124.656 -33.95,-244.5778 -97.53,-267.8396 -63.57,-23.2695 -122.98,58.9336 -132.69,183.5936" /><path
             id="path66"
             style="fill:none;stroke:#949390;stroke-width:10;stroke-linecap:butt;stroke-linejoin:miter;stroke-miterlimit:10;stroke-dasharray:none;stroke-opacity:1"
             d="m 2248.21,442.879 c 0,0 80.68,-322.418 -1.62,-453.2306 0,0 55.27,-914.6484 -31.21,-1194.6484" /><path
             id="path68"
             style="fill:none;stroke:#949390;stroke-width:10;stroke-linecap:butt;stroke-linejoin:miter;stroke-miterlimit:10;stroke-dasharray:none;stroke-opacity:1"
             d="m 2127.41,152.43 c 0,0 19.21,-124.0511 85.3,-155.53938" /><path
             id="path70"
             style="fill:#bcbbb4;fill-opacity:1;fill-rule:nonzero;stroke:none"
             d="m 1600.28,-23.2109 c 0,0 82.53,-494.4301 -91.07,-1397.7791 -2.31,-12 -13.07,-14.26 -18.49,-3.8 -16.86,32.49 -84.8,65.14 -138.01,80.35 -92.57,26.48 -62.91,50.87 -113.15,139.8 -72.21,127.82 -123.72,356.32 -108.54,778.421 19.74,548.68 469.26,403.0081 469.26,403.0081" /><path
             id="path72"
             style="fill:#e5e2da;fill-opacity:1;fill-rule:nonzero;stroke:none"
             d="m 1440.12,-9.66797 c -3.25,125.63697 54.92,239.87897 129.91,255.15997 75,15.289 138.43,-74.16 141.68,-199.8006 3.25,-125.6328 -54.91,-239.8714 -129.91,-255.1604 -75,-15.293 -138.43,74.168 -141.68,199.80103" /><path
             id="path74"
             style="fill:none;stroke:#949390;stroke-width:10;stroke-linecap:butt;stroke-linejoin:miter;stroke-miterlimit:10;stroke-dasharray:none;stroke-opacity:1"
             d="m 1612.68,242.691 c 0,0 72.64,-331.8824 -30.88,-452.16 0,0 5.37,-919.791 -112.55,-1188.471" /><path
             id="path76"
             style="fill:#040606;fill-opacity:1;fill-rule:nonzero;stroke:none"
             d="m 3678.58,3225.9 c -32.23,63.02 -109.45,87.97 -172.47,55.73 -63.01,-32.24 -87.97,-109.46 -55.73,-172.47 32.24,-63.02 109.46,-87.97 172.47,-55.73 63.02,32.24 87.97,109.45 55.73,172.47" /><path
             id="path78"
             style="fill:#bcbbb4;fill-opacity:1;fill-rule:nonzero;stroke:none"
             d="m 2914.41,2520.11 c 0,0 245.57,97.25 677.43,482.74 0,0 8.11,455.82 -494.98,24.96 -418.09,-358.08 -182.45,-507.7 -182.45,-507.7" /><path
             id="path80"
             style="fill:none;stroke:#949390;stroke-width:9.97087002;stroke-linecap:butt;stroke-linejoin:miter;stroke-miterlimit:10;stroke-dasharray:none;stroke-opacity:1"
             d="m 3334.51,3190.06 c 0,0 173.86,-130.9 -89.43,-211.22 -228.09,-69.58 -377.61,-379.47 -377.61,-379.47" /><path
             id="path82"
             style="fill:#e5e2da;fill-opacity:1;fill-rule:nonzero;stroke:none"
             d="m 3630.05,3553.89 c 0,0 49.53,88.52 72.08,108.95 22.56,20.42 181.5,6.96 192.26,-3.07 10.76,-10.03 -20.5,-36.14 -96.29,-38.03 -75.79,-1.88 -74.89,-51.06 -74.89,-51.06 l -93.16,-16.79" /><path
             id="path84"
             style="fill:#e5e2da;fill-opacity:1;fill-rule:nonzero;stroke:none"
             d="m 3694.84,3556.75 c 0,0 0.71,94.54 10.2,121.46 9.49,26.92 148.99,89.03 162.64,85.84 13.66,-3.19 -0.52,-38.73 -63.21,-75.08 -62.68,-36.34 -67.24,-146.99 -67.24,-146.99 l -42.39,14.77" /><path
             id="path86"
             style="fill:#bcbbb4;fill-opacity:1;fill-rule:nonzero;stroke:none"
             d="m 3696.09,3418.32 c -8.15,-3.37 -48.54,-28.44 -46.77,-6.26 1.77,22.19 43.41,109.35 113.43,130.01 0,0 194.17,48.71 108.79,73.66 0,0 -110.58,-5.87 -144.56,-15.44 -17.14,-4.83 -108.44,-30.84 -121.12,-56.6 -9.75,-19.81 -76.83,-146.08 -95.21,-203.84 -5.72,-17.94 -2.89,-37.22 7.63,-52.33 l 53.64,-76.99 c 8.61,-12.37 25.74,-15.28 38.52,-6.49 34.69,23.85 97.75,67.45 111.14,78.33" /><path
             id="path88"
             style="fill:none;stroke:#040606;stroke-width:8.48451996;stroke-linecap:butt;stroke-linejoin:miter;stroke-miterlimit:10;stroke-dasharray:none;stroke-opacity:1"
             d="m 3640.37,3566.49 102.96,34.4" /><path
             id="path90"
             style="fill:none;stroke:#040606;stroke-width:8.48451996;stroke-linecap:butt;stroke-linejoin:miter;stroke-miterlimit:10;stroke-dasharray:none;stroke-opacity:1"
             d="m 3702.13,3662.84 c 0,0 7.36,17.37 82.05,10.49" /><path
             id="path92"
             style="fill:#040606;fill-opacity:1;fill-rule:nonzero;stroke:none"
             d="m 3564.49,3465.93 599.68,-131.33 c 57.93,-12.68 115.17,23.99 127.85,81.91 l 217.28,992.17 c 12.69,57.92 -23.99,115.16 -81.91,127.84 l -599.69,131.33 c -57.92,12.69 -115.16,-23.99 -127.84,-81.91 l -217.28,-992.16 c -12.69,-57.93 23.98,-115.17 81.91,-127.85" /><path
             id="path94"
             style="fill:#205e8e;fill-opacity:1;fill-rule:nonzero;stroke:none"
             d="m 3713.42,3990.08 c 20.99,-185.58 55.74,-75.1 106.64,-53.62 49.71,20.99 27.25,127.11 26.48,175.35 -0.03,1.87 -0.34,3.76 -0.97,5.52 -24.24,67.83 -12.45,59.08 -10.76,121.19 0.04,1.62 -0.16,3.3 -0.58,4.86 -32.91,121.44 -0.68,272.49 61.28,86.53 0.35,-1.04 0.62,-2.14 0.78,-3.22 16.96,-112.25 18.15,-236.43 51.77,-343 30.76,-31.55 22.57,83.44 37.91,107.46 19.65,31.44 -6.56,107.84 6.41,138.6 33.62,58.16 6.22,162.86 43.04,226.2 44.24,57.47 65.39,-123.74 51.62,-140.97 -12.83,-38.1 -8.63,-82.42 -7.41,-113.97 0.07,-1.63 -0.11,-3.11 -0.49,-4.7 -5.53,-23.36 -12.47,-91.31 -13.92,-140.18 35.93,-76.28 59.4,324.12 113.24,321.89 35.23,-4.52 30.95,-117.12 3.69,-244.94 -10.94,-43.81 -36.65,-131.31 -35.49,-189.66 0.33,-16.44 21.35,-23.09 31.25,-9.95 16.85,22.36 35.04,44.65 34.05,74.85 -0.02,0.79 -0.03,1.5 0.07,2.27 3.53,27.07 64.81,160.46 109.03,185.91 10.76,6.2 24.3,-1.36 25.5,-13.72 3.63,-37.65 -23.01,-104.55 -41.48,-150.22 -22.66,-46.32 -35.91,-106.32 -60.41,-156.64 -8.94,-18.36 -15.22,-37.94 -18.15,-58.14 -16.61,-114.83 -113.08,-223.07 -128.79,-310.1 -0.72,-3.99 0.05,-8.13 2.23,-11.54 16.56,-25.9 37.54,-146.03 10.01,-147.07 -56.03,13.65 -292.93,50.2 -278.69,70.97 -0.25,2.22 -0.52,4.46 -0.79,6.7 -0.34,0.08 -0.56,0.14 -0.56,0.14 -2.75,25.13 -19.32,145.61 -68.39,184.05 -63.3,-2.91 -134.3,330.24 -123.27,375.93 0.58,2.38 0.43,4.97 0.07,7.38 -23.92,160.05 59.12,106.1 75.08,-4.16" /><path
             id="path96"
             style="fill:#63afe4;fill-opacity:1;fill-rule:nonzero;stroke:none"
             d="m 4271.86,3998.2 c 0,0 -26.12,-63.51 -34.65,-95.03 -8.53,-31.52 -13.76,-44.22 -30.1,-33.31 -16.34,10.91 -48.49,5.46 -32.09,32 16.4,26.54 26.93,18.81 43.28,60.02 15.73,39.64 7.57,64.31 19.32,58.48 11.76,-5.83 41.12,-13.08 34.24,-22.16" /><path
             id="path98"
             style="fill:#63afe4;fill-opacity:1;fill-rule:nonzero;stroke:none"
             d="m 4314.22,4087.47 c 0,0 -14.12,-12.38 -19.24,-28.36 -5.13,-15.98 -12.38,-45.34 -22.84,-37.35 -10.47,7.99 -25.14,7.95 -25.06,12 0.07,4.06 17.54,20.6 20.77,35.36 3.23,14.77 13.59,43.45 23.01,38.13 9.42,-5.32 34.48,-17.33 23.36,-19.78" /><path
             id="path100"
             style="fill:#63afe4;fill-opacity:1;fill-rule:nonzero;stroke:none"
             d="m 4321.88,4111.31 c 0,0 -36.2,5.76 -31.18,18.78 5.02,13.01 33.61,51.82 39.12,57.12 5.5,5.32 1.2,-36.64 -2.73,-47.17 -3.94,-10.54 0.83,-28.42 -5.21,-28.73" /><path
             id="path102"
             style="fill:#63afe4;fill-opacity:1;fill-rule:nonzero;stroke:none"
             d="m 3683.72,3800.82 c 0,0 34.37,-83.15 45.62,-124.43 11.25,-41.29 18.12,-57.92 39.51,-43.59 21.39,14.33 63.52,7.26 41.97,42.01 -21.55,34.74 -35.32,24.58 -56.84,78.54 -20.69,51.9 -10.06,84.25 -25.44,76.58 -15.39,-7.66 -53.85,-17.22 -44.82,-29.11" /><path
             id="path104"
             style="fill:#63afe4;fill-opacity:1;fill-rule:nonzero;stroke:none"
             d="m 3650.16,3967.96 c 0,0 15.55,-64.27 18.39,-95.42 2.83,-31.16 5.94,-44.02 26.19,-36.47 20.25,7.55 54.48,-2.98 41.95,24.8 -12.53,27.78 -25.71,22.25 -35.14,63.86 -9.08,40.01 5.03,61.91 -9.11,58.39 -14.15,-3.53 -47.96,-5.44 -42.28,-15.16" /><path
             id="path106"
             style="fill:#63afe4;fill-opacity:1;fill-rule:nonzero;stroke:none"
             d="m 3696.89,3998.03 c 0,0 -38.91,-17.82 -42.45,-1.92 -3.53,15.9 -0.84,72.11 1.08,80.83 1.91,8.72 24.87,-34.83 27.86,-47.63 2.99,-12.79 19.19,-27.08 13.51,-31.28" /><path
             id="path108"
             style="fill:#63afe4;fill-opacity:1;fill-rule:nonzero;stroke:none"
             d="m 4165.64,4137.93 c 0,0 -24.44,-74.01 -26.21,-111 -1.77,-36.99 -3.7,-60.29 -24.46,-52.2 -20.76,8.1 -41.03,1.27 -29.33,34.66 11.69,33.39 17.96,28.62 26.03,78.24 7.76,47.73 -7.29,73.07 7.15,69.47 14.44,-3.59 52.22,-7.44 46.82,-19.17" /><path
             id="path110"
             style="fill:#63afe4;fill-opacity:1;fill-rule:nonzero;stroke:none"
             d="m 4188.1,4248.82 c 0,0 -12.62,-17.15 -14.4,-36.1 -1.79,-18.95 -2.66,-53.22 -16.19,-46.92 -13.54,6.3 -29.78,2.67 -30.68,7.18 -0.91,4.51 14.41,27.08 14.39,44.22 -0.02,17.14 4.46,51.43 16.19,47.83 11.73,-3.6 42.41,-10.79 30.69,-16.21" /><path
             id="path112"
             style="fill:#63afe4;fill-opacity:1;fill-rule:nonzero;stroke:none"
             d="m 4190.78,4277.09 c 0,0 -41.5,-2.45 -39.11,13.19 2.39,15.64 24.6,65.58 29.4,72.8 4.81,7.22 10.26,-40.29 8.47,-52.92 -1.79,-12.63 7.85,-31.26 1.24,-33.07" /><path
             id="path114"
             style="fill:#63afe4;fill-opacity:1;fill-rule:nonzero;stroke:none"
             d="m 3885.98,4292.84 c 0,0 -6.55,-20.25 -2.25,-38.79 4.29,-18.54 14.3,-51.34 -0.53,-49.64 -14.84,1.7 -29.09,-6.87 -31.38,-2.88 -2.28,3.99 5.11,30.24 -0.32,46.5 -5.44,16.26 -12.03,50.19 0.24,50.49 12.27,0.3 43.64,3.18 34.24,-5.68" /><path
             id="path116"
             style="fill:#63afe4;fill-opacity:1;fill-rule:nonzero;stroke:none"
             d="m 3879.58,4320.51 c 0,0 -38.59,-15.44 -41.27,0.15 -2.67,15.6 2.6,69.99 4.88,78.36 2.28,8.37 22.47,-34.97 24.76,-47.52 2.3,-12.55 17.33,-27.18 11.63,-30.99" /><path
             id="path118"
             style="fill:#63afe4;fill-opacity:1;fill-rule:nonzero;stroke:none"
             d="m 4063.12,4204.31 c 0,0 -16.82,-82.58 -14.01,-122.51 2.8,-39.94 3.69,-65.22 -19.63,-59.16 -23.31,6.05 -44.21,-3.86 -35.9,33.48 8.31,37.34 15.64,33.01 17.99,87.32 2.26,52.24 -17.12,77.52 -1.16,75.5 15.96,-2.02 57.02,-1.34 52.71,-14.63" /><path
             id="path120"
             style="fill:#63afe4;fill-opacity:1;fill-rule:nonzero;stroke:none"
             d="m 4073.12,4326.24 c 0,0 -11.36,-20.02 -10.86,-40.59 0.49,-20.57 3.92,-57.49 -11.42,-52.45 -15.33,5.05 -32.31,-0.91 -33.85,3.82 -1.55,4.72 12.02,30.9 9.82,49.3 -2.2,18.41 -1.75,55.79 11.3,53.42 13.06,-2.37 46.91,-6.19 35.01,-13.5" /><path
             id="path122"
             style="fill:#63afe4;fill-opacity:1;fill-rule:nonzero;stroke:none"
             d="m 4072.4,4356.93 c 0,0 -44.24,-7.9 -43.66,9.2 0.57,17.09 18.06,73.53 22.3,81.9 4.24,8.36 16.15,-41.95 15.83,-55.74 -0.32,-13.79 12.4,-32.57 5.53,-35.36" /><path
             id="path124"
             style="fill:#63afe4;fill-opacity:1;fill-rule:nonzero;stroke:none"
             d="m 4074.77,3615.02 0.06,0.38 c 0.95,0.17 0.45,-0.15 -0.06,-0.38" /><path
             id="path126"
             style="fill:#63afe4;fill-opacity:1;fill-rule:nonzero;stroke:none"
             d="m 3913.14,3992.48 c 28.08,21.26 23.39,-55.03 13.72,-94.41 -6.02,-24.52 -0.31,-97.06 4.85,-148.3 16.07,9.35 55.63,228.71 54.8,251.78 -0.84,23.47 28.26,-9.51 49.69,0.69 34.38,16.37 12.72,-63.39 -6.12,-102.97 -11.44,-24.03 -21.06,-98.77 -26.86,-153.83 22.11,42.53 68.45,195.97 69.99,214.6 1.78,21.65 24.92,-11.81 45.71,-4.77 33.35,11.3 4.78,-59.61 -16.83,-93.91 -17.5,-27.75 -41.84,-138.68 -50.49,-180 16.9,7.57 103.48,161.44 108.94,179.15 5.64,18.31 19.13,-11.79 38.47,-12.77 39.82,-2.01 -28.36,-77.4 -53.48,-102.85 -25.11,-25.45 -70.7,-129.49 -70.7,-129.49 -1.14,-0.73 -0.6,-0.61 -0.06,-0.38 l -10.14,-67.53 c -0.3,-2 -1.13,-3.88 -2.42,-5.44 l -49.69,-60.49 c -1.08,-1.32 -2.4,-2.45 -3.96,-3.16 -40.09,-18.22 -127.13,30.01 -141.85,38.47 -1.45,0.83 -2.61,1.92 -3.56,3.29 l -62.97,90.97 c -3.48,5.03 -2.18,11.92 2.81,15.46 12.44,8.82 20.88,26.47 24.39,34.95 1.04,2.5 2.39,4.84 4.37,6.68 17.01,15.89 36.88,92.63 39.58,102.27 5.18,58.84 1.01,195.39 -3.06,212.07 -5.15,21.1 27.38,-3.33 44.87,9.92" /><path
             id="path128"
             style="fill:#63afe4;fill-opacity:1;fill-rule:nonzero;stroke:none"
             d="m 4089.18,3483.37 c -7,10.44 -21.55,12.62 -31.68,5.17 -14.95,-11 -42.66,-29.6 -58.65,-29.16 -89.08,2.44 -137,63.67 -150.86,44.99 -10.14,-13.66 0.59,-81.58 0.59,-81.58 l 256.99,-56.28 c 0,0 5.7,83.92 -16.39,116.86" /><path
             id="path130"
             style="fill:#63afe4;fill-opacity:1;fill-rule:nonzero;stroke:none"
             d="m 3900.35,4100.75 c 1.49,-14.15 3.52,-27.67 6.35,-37.77 10.02,-35.65 15.55,-58.37 -6.7,-57.25 -22.26,1.12 -39.33,-11.77 -38.79,23.61 0.54,35.37 7.99,32.82 -0.04,82.45 -0.35,2.21 -0.77,4.28 -1.18,6.37 l 12.42,0.99 27.94,-18.4" /><path
             id="path132"
             style="fill:#63afe4;fill-opacity:1;fill-rule:nonzero;stroke:none"
             d="m 3851.13,4192.07 c 14.83,1.15 51.89,9.45 50.48,-3.39 0,0 0.13,-40.01 3.88,-75.82 l -27.94,18.4 -12.43,-0.99 c -8.55,43.04 -28.14,60.7 -13.99,61.8" /><path
             id="path134"
             style="fill:#bcbbb4;fill-opacity:1;fill-rule:nonzero;stroke:none"
             d="m 3721.58,3282.37 c 18.69,15.18 45.87,108.85 57.26,142.13 23.24,67.9 -6.13,105.69 -29.41,69.48 -23.9,-37.16 -45.19,-72.3 -53.34,-75.66" /><path
             id="path136"
             style="fill:none;stroke:#949390;stroke-width:10;stroke-linecap:butt;stroke-linejoin:miter;stroke-miterlimit:10;stroke-dasharray:none;stroke-opacity:1"
             d="m 3652.36,3433.01 c 0,0 -158.36,-150.84 -15.57,-207.52" /><path
             id="path138"
             style="fill:#205e8e;fill-opacity:1;fill-rule:nonzero;stroke:none"
             d="m 2050.94,2418.22 c 0,0 -180.53,-102.87 -458.45,-14.44 -216.07,68.75 516.49,471.97 458.45,14.44" /><path
             id="path140"
             style="fill:#040606;fill-opacity:1;fill-rule:nonzero;stroke:none"
             d="m 1950.69,2574.58 c 0,0 57.71,-284.14 -27.69,-762.15 l -4.05,-1.42 c -94.34,-33.03 -198.93,-17.15 -278.93,42.36 v 0 c 0,0 121.68,508.09 13.87,723.13 l 296.8,-1.92" /></g></g><g
         id="g142"><g
           clip-path="url(#clipPath148)"
           id="g144"><path
             id="path150"
             style="fill:none;stroke:#63afe4;stroke-width:10;stroke-linecap:butt;stroke-linejoin:miter;stroke-miterlimit:10;stroke-dasharray:none;stroke-opacity:1"
             d="m 1999.6,2393.02 c 0,0 -102.23,-147.25 -320.59,-34.95" /><path
             id="path152"
             style="fill:none;stroke:#63afe4;stroke-width:10;stroke-linecap:butt;stroke-linejoin:miter;stroke-miterlimit:10;stroke-dasharray:none;stroke-opacity:1"
             d="m 2002.4,2215.69 c 0,0 -102.22,-147.25 -320.58,-34.95" /><path
             id="path154"
             style="fill:none;stroke:#63afe4;stroke-width:10;stroke-linecap:butt;stroke-linejoin:miter;stroke-miterlimit:10;stroke-dasharray:none;stroke-opacity:1"
             d="m 1979.04,2031.4 c 0,0 -109.76,-141.73 -321.97,-18.21" /></g></g><g
         id="g156"><g
           clip-path="url(#clipPath162)"
           id="g158"><path
             id="path164"
             style="fill:#63afe4;fill-opacity:1;fill-rule:nonzero;stroke:none"
             d="m 1694.77,3566.85 c 0,0 136.18,23.17 278.69,-36.68 242.95,-102.05 274.32,-228.3 277.16,-535.69 2.4,-259.5 -113.81,-593.16 -177.69,-605.32 -63.89,-12.16 1.66,174.84 -134.96,177.59 -144.37,2.9 -325.61,-235.2 -429.71,-213.1 -104.1,22.1 -317.41,280.23 -391.2,564.6 -73.78,284.37 -45.39,670.78 577.71,648.6" /><path
             id="path170"
             style="fill:#63afe4;fill-opacity:1;fill-rule:nonzero;stroke:none"
             d="m 1450.31,3631.8 -153.4,-131.66 419.92,-377.02 143.47,197.84 178.35,-118.03 c 0,0 21.58,295.16 -295.1,401.2 -221.5,74.18 -293.24,27.67 -293.24,27.67" /><path
             id="path172"
             style="fill:none;stroke:#040606;stroke-width:5;stroke-linecap:butt;stroke-linejoin:miter;stroke-miterlimit:10;stroke-dasharray:none;stroke-opacity:1"
             d="m 1716.83,3123.12 143.47,197.84 178.35,-118.03" /><path
             id="path174"
             style="fill:#efefed;fill-opacity:1;fill-rule:nonzero;stroke:none"
             d="m 1338.83,3531.09 c 0,0 604.84,-450.82 683.46,-825.17 78.62,-374.34 17.86,-3169.998 17.86,-3169.998 0,0 -525.15,-212.113 -1184.798,128.797 0,0 -114.414,3379.891 -30.633,3578.181 83.785,198.3 343.031,210.1 514.111,288.19" /><path
             id="path176"
             style="fill:#efefed;fill-opacity:1;fill-rule:nonzero;stroke:none"
             d="m 1829.97,3566.13 c 0,0 349.16,-393.29 140.61,-1505.85 l 117.9,-2515.51 c 0,0 352.29,99.261 445.87,310.75 0,0 -36.64,2910.53 -133.81,3298.75 -112.09,447.86 -570.57,411.86 -570.57,411.86" /><path
             id="path178"
             style="fill:#efefed;fill-opacity:1;fill-rule:nonzero;stroke:none"
             d="m 2260.34,3416.77 519.03,-629.39 658.25,466.75 c 0,0 191.12,-218.03 250.54,-402.6 l -974.42,-717.41 -522.01,530.96 68.61,751.69" /><path
             id="path180"
             style="fill:none;stroke:#040606;stroke-width:5;stroke-linecap:butt;stroke-linejoin:miter;stroke-miterlimit:10;stroke-dasharray:none;stroke-opacity:1"
             d="m 2469.14,2387.67 44.75,316.19" /><path
             id="path182"
             style="fill:none;stroke:#040606;stroke-width:5;stroke-linecap:butt;stroke-linejoin:miter;stroke-miterlimit:10;stroke-dasharray:none;stroke-opacity:1"
             d="m 1194.67,3453.42 129.86,-380.26 257.13,84.84 -86.58,-313.69 551.47,-820.52 161.72,1009.51 -136.89,143.22 123.73,7.34 c 0,0 -131.78,243.26 -240.54,360.21" /><path
             id="path184"
             style="fill:none;stroke:#040606;stroke-width:5;stroke-linecap:butt;stroke-linejoin:miter;stroke-miterlimit:10;stroke-dasharray:none;stroke-opacity:1"
             d="m 2033.21,2653.6 c 0,0 -5.18,-140.09 13.34,-629.81 18.52,-489.72 5.82,-1728.419 5.82,-1728.419" /><path
             id="path186"
             style="fill:#ed375b;fill-opacity:1;fill-rule:nonzero;stroke:none"
             d="m 2097.36,2898.32 c -0.33,1.71 -34.22,173.27 -95.52,344.16 -79.4,221.31 -167.59,341.22 -255.03,346.75 l -3.12,0.2 -2.78,1.42 c -1.8,0.93 -181.54,91.95 -269.05,44.36 -26.82,-14.59 -41.81,-40.84 -45.82,-80.26 -7.89,-77.53 25.36,-151.28 71.37,-253.35 34.71,-76.99 77.9,-172.81 117.29,-300.36 l -28.66,-8.85 c -38.84,125.77 -81.61,220.65 -115.98,296.88 -47.93,106.34 -82.56,183.17 -73.86,268.71 5.02,49.35 25.66,84.2 61.35,103.6 96,52.17 269.38,-30.26 294.3,-42.65 236.56,-20.74 369.4,-686.41 374.96,-714.85 l -29.45,-5.76" /><path
             id="path188"
             style="fill:#040606;fill-opacity:1;fill-rule:nonzero;stroke:none"
             d="m 1710.7,4146.09 62.76,-616.56 c 98.87,-152.5 86.84,-208.57 86.84,-208.57 -89.43,-39.05 -345.61,178.06 -428.23,235.84 v 0 c 0,0 61.82,400.36 -59.96,618.26 l 338.59,-28.97" /><path
             id="path190"
             style="fill:#bcbbb4;fill-opacity:1;fill-rule:nonzero;stroke:none"
             d="m 2173.99,3941.5 0.17,302.49 c 0.04,79.95 -17.28,159.45 -54.17,229.65 -44.14,83.97 -117.75,165.84 -251.51,170.58 0,0 -98.09,-1.04 -163.03,-1.74 -47.17,-0.5 -94.26,-8.07 -138.42,-25.27 -78.45,-30.53 -144.52,-80.08 -189.65,-161.23 -47.84,-86.03 -83.3,-200.19 -67.93,-300.18 7.99,-51.95 31.38,-132.06 73.38,-166.19 0.01,-0.01 68.14,-20.02 68.14,-20.02 106.39,-214.31 111.28,-305.14 316.6,-331.09 12.96,-1.64 26.01,-2.72 39.05,-3.4 l 102.32,2.76 c 130.19,17.31 273.95,124.5 265.05,303.64" /><path
             id="path192"
             style="fill:#e5e2da;fill-opacity:1;fill-rule:nonzero;stroke:none"
             d="m 1591.19,4489.46 c 137.5,153.27 386.03,116.77 482.22,54.67 18.46,-22.13 33.8,-46.19 46.58,-70.49 36.89,-70.2 54.21,-149.7 54.17,-229.65 l -5.58,-269.57 c -10.32,-149.57 -72.69,-226.2 -183.6,-251.14 -18.13,-4.08 -36.74,-5.35 -55.29,-5.02 l -133.96,2.36 c -46.61,0.82 -90.99,22.76 -119.61,61.06 -107.72,144.1 -250.25,523.5 -84.93,707.78" /><path
             id="path194"
             style="fill:none;stroke:#949390;stroke-width:10;stroke-linecap:butt;stroke-linejoin:miter;stroke-miterlimit:10;stroke-dasharray:none;stroke-opacity:1"
             d="m 1664.12,4197.49 -171.09,-5.28 c -34.03,-1.05 -60.31,-31.39 -57.75,-66.69 l 5.47,-75.53" /><path
             id="path196"
             style="fill:#e5e2da;fill-opacity:1;fill-rule:nonzero;stroke:none"
             d="m 1444.63,4173.34 -82.95,0.2 c -23.68,-1.27 -41.46,-47.91 -39.71,-104.18 1.75,-56.26 22.37,-100.84 46.05,-99.57 l 82.95,-0.2 c 23.68,1.27 41.46,47.91 39.71,104.18 -1.75,56.26 -22.37,100.84 -46.05,99.57" /><path
             id="path198"
             style="fill:none;stroke:#949390;stroke-width:10;stroke-linecap:butt;stroke-linejoin:miter;stroke-miterlimit:10;stroke-dasharray:none;stroke-opacity:1"
             d="m 1335.36,4348.52 c 0,0 160.09,-71.83 172.41,237.51" /><path
             id="path200"
             style="fill:none;stroke:#949390;stroke-width:10;stroke-linecap:butt;stroke-linejoin:miter;stroke-miterlimit:10;stroke-dasharray:none;stroke-opacity:1"
             d="m 1970.22,4067.81 c 0,0 12.72,-293.59 13.74,-319.06 1.02,-25.47 -31.14,-90.06 -71.39,-102.86" /><path
             id="path202"
             style="fill:#040606;fill-opacity:1;fill-rule:nonzero;stroke:none"
             d="m 2158.4,4178.66 -9.74,124.6 c -4.19,57.31 -84.25,118.54 -180.8,115.24 l -88.79,-3.04 c -129.54,-4.42 -230.92,-70.96 -225.3,-147.85 l 9.17,-125.57 c 5.63,-76.89 116.21,-136.17 245.74,-131.74 l 60.37,2.06 c 32.29,1.11 64.35,6.62 91.38,17.77 82.2,33.91 101.41,101.45 97.97,148.53" /><path
             id="path204"
             style="fill:#205e8e;fill-opacity:1;fill-rule:nonzero;stroke:none"
             d="m 1830.48,4384.88 143.55,5.74 c 87.91,3.51 163.95,-62.8 168.98,-147.34 l 3.45,-57.96 c 0.27,-4.58 0.22,-9.11 -0.07,-13.58 -12.95,76.8 -85.48,174.71 -167.79,171.42 l -143.55,-5.73 c -82.31,-3.29 -146.36,-106.66 -150.13,-184.12 -0.82,4.42 -1.4,8.93 -1.68,13.51 l -3.44,57.95 c -5.03,84.55 62.78,156.61 150.68,160.11" /><path
             id="path206"
             style="fill:#ecebe7;fill-opacity:1;fill-rule:nonzero;stroke:none"
             d="m 1764.36,4376.2 c -26.46,-17.11 -41.46,-38.05 -33.49,-46.77 7.96,-8.72 35.87,-1.91 62.33,15.21 26.46,17.11 41.46,38.05 33.49,46.77 -7.96,8.71 -35.87,1.9 -62.33,-15.21" /><path
             id="path208"
             style="fill:#63afe4;fill-opacity:1;fill-rule:nonzero;stroke:none"
             d="m 1867.1,4108.25 v 0 c -27.51,-3.09 -52.85,24.08 -56.33,60.39 l -8.22,85.84 c -3.47,36.31 16.19,68.56 43.69,71.66 v 0 c 27.51,3.09 52.86,-24.08 56.33,-60.4 l 8.22,-85.83 c 3.48,-36.32 -16.18,-68.56 -43.69,-71.66" /><path
             id="path210"
             style="fill:#63afe4;fill-opacity:1;fill-rule:nonzero;stroke:none"
             d="m 2095.47,4133.97 -3.4,-0.38 c -21.42,-2.42 -41.16,18.75 -43.87,47.03 l -9.7,101.28 c -2.7,28.28 12.61,53.4 34.03,55.81 l 3.4,0.38 c 21.42,2.42 41.16,-18.75 43.87,-47.03 l 9.69,-101.29 c 2.71,-28.28 -12.6,-53.39 -34.02,-55.8" /><path
             id="path212"
             style="fill:#bcbbb4;fill-opacity:1;fill-rule:nonzero;stroke:none"
             d="m 1809.85,2275.63 -5.87,8.09 c 53.4,38.76 -30.32,403.53 -67.08,540.82 l 9.66,2.58 c 0.33,-1.24 33.6,-125.89 58.13,-254.96 33.75,-177.56 35.44,-274.56 5.16,-296.53" /><path
             id="path214"
             style="fill:#bcbbb4;fill-opacity:1;fill-rule:nonzero;stroke:none"
             d="m 1723.32,2265.62 c -38.7,13.31 -81.39,103.52 -126.86,268.15 -33.58,121.57 -56.53,240.93 -56.76,242.12 l 9.83,1.87 c 0.22,-1.18 23.11,-120.19 56.58,-241.38 55.48,-200.81 96.13,-252.93 120.46,-261.3 l -3.25,-9.46" /><path
             id="path216"
             style="fill:#040606;fill-opacity:1;fill-rule:nonzero;stroke:none"
             d="m 1776.49,2284.93 c 0.26,-16.78 13.16,-30.18 28.8,-29.94 15.64,0.25 28.1,14.06 27.83,30.84 -0.26,16.78 -13.16,30.19 -28.8,29.94 -15.64,-0.25 -28.1,-14.05 -27.83,-30.84" /><path
             id="path218"
             style="fill:#040606;fill-opacity:1;fill-rule:nonzero;stroke:none"
             d="m 1704.72,2273.26 c 1.61,-16.72 15.55,-29.34 31.14,-28.18 15.59,1.16 26.92,15.65 25.31,32.37 -1.61,16.73 -15.56,29.34 -31.15,28.18 -15.59,-1.15 -26.92,-15.65 -25.3,-32.37" /><path
             id="path220"
             style="fill:#ed375b;fill-opacity:1;fill-rule:nonzero;stroke:none"
             d="m 1546.21,2715.75 c -14.95,41.18 -60.23,181.21 -15.29,254.11 14.93,24.22 37.7,38.3 67.68,41.85 49.13,5.74 92.98,-34.04 130.46,-118.4 26.3,-59.21 39.77,-118.85 40.33,-121.36 l -29.28,-6.54 c -14.11,63.09 -66.54,224.92 -137.98,216.5 -20.71,-2.44 -35.65,-11.54 -45.67,-27.79 -30.1,-48.82 -10.46,-149.86 17.95,-228.14 l -28.2,-10.23" /><path
             id="path222"
             style="fill:#949390;fill-opacity:1;fill-rule:nonzero;stroke:none"
             d="m 2031.48,2783.64 c 7.3,-64.27 58.97,-111.17 115.4,-104.75 56.42,6.41 96.23,63.72 88.93,127.99 -7.31,64.27 -58.98,111.16 -115.41,104.75 -56.42,-6.42 -96.23,-63.72 -88.92,-127.99" /><path
             id="path224"
             style="fill:#bcbbb4;fill-opacity:1;fill-rule:nonzero;stroke:none"
             d="m 2093.31,2790.63 c 3.89,-34.25 31.42,-59.24 61.49,-55.82 30.07,3.42 51.29,33.96 47.39,68.21 -3.89,34.25 -31.42,59.24 -61.49,55.82 -30.07,-3.42 -51.29,-33.96 -47.39,-68.21" /><path
             id="path226"
             style="fill:none;stroke:#040606;stroke-width:5;stroke-linecap:butt;stroke-linejoin:miter;stroke-miterlimit:10;stroke-dasharray:none;stroke-opacity:1"
             d="m 3289.44,3157.26 256.53,-399.71" /><path
             id="path228"
             style="fill:none;stroke:#040606;stroke-width:5;stroke-linecap:butt;stroke-linejoin:miter;stroke-miterlimit:10;stroke-dasharray:none;stroke-opacity:1"
             d="m 3375.49,3130.87 c 6.68,-18.93 27.43,-28.86 46.36,-22.18 18.93,6.68 28.86,27.44 22.18,46.36 -6.68,18.93 -27.44,28.86 -46.36,22.18 -18.93,-6.68 -28.86,-27.43 -22.18,-46.36 z" /><path
             id="path230"
             style="fill:#bcbbb4;fill-opacity:1;fill-rule:nonzero;stroke:none"
             d="m 618.504,864.629 c -8.59,-78.059 28.93,-265.43 60.504,-317.469 54.16,-89.269 89.508,-97.25 89.508,-97.25 v 0 c 14.234,-23.961 39.734,-39.672 68.418,-42.148 l 9.304,-0.801 c 51.703,-59.832 72.168,9.469 72.168,9.469 19.184,-27.629 56.551,-36.758 64.332,10.922 11.508,70.507 -25.894,282 -25.894,282 0,0 49.356,29.269 65.326,-3.18 40.29,-81.871 85.64,-81.402 94.14,-75.524 8.51,5.891 9.82,6.641 1.56,61.364 -7.98,52.867 -29.23,115.437 -58.96,144.957 C 989.48,905.91 960.621,1088.02 809.66,1012.04 799.645,1007 634.578,1010.7 618.504,864.629" /><path
             id="path232"
             style="fill:none;stroke:#040606;stroke-width:5;stroke-linecap:butt;stroke-linejoin:miter;stroke-miterlimit:10;stroke-dasharray:none;stroke-opacity:1"
             d="m 863.254,673.309 c 0,0 15.664,-201.059 55.152,-256.879" /><path
             id="path234"
             style="fill:none;stroke:#040606;stroke-width:5;stroke-linecap:butt;stroke-linejoin:miter;stroke-miterlimit:10;stroke-dasharray:none;stroke-opacity:1"
             d="m 776.102,642.719 c 0,0 30.718,-206.149 70.136,-235.758" /><path
             id="path236"
             style="fill:none;stroke:#040606;stroke-width:5;stroke-linecap:butt;stroke-linejoin:miter;stroke-miterlimit:10;stroke-dasharray:none;stroke-opacity:1"
             d="m 768.516,449.91 c 0,0 -56.176,112.238 -65.239,201.211" /><path
             id="path238"
             style="fill:none;stroke:#949390;stroke-width:10;stroke-linecap:butt;stroke-linejoin:miter;stroke-miterlimit:10;stroke-dasharray:none;stroke-opacity:1"
             d="m 848.352,980.328 c 0,0 29.554,-216.637 -83.411,-260.316 C 664.715,681.262 658.715,874.52 675.637,957.18" /><path
             id="path240"
             style="fill:none;stroke:#949390;stroke-width:10;stroke-linecap:butt;stroke-linejoin:miter;stroke-miterlimit:10;stroke-dasharray:none;stroke-opacity:1"
             d="m 1000.66,920.582 c 0,0 -111.519,-40.742 -97.773,-115.652 13.75,-74.91 55.617,-124.489 55.617,-124.489" /><path
             id="path242"
             style="fill:#040606;fill-opacity:1;fill-rule:nonzero;stroke:none"
             d="m 777.574,892.211 c 69.602,7.961 121.352,69.93 115.582,138.429 -5.765,68.49 -66.863,117.56 -136.465,109.59 -69.601,-7.96 -121.347,-69.93 -115.582,-138.43 5.766,-68.491 66.864,-117.558 136.465,-109.589" /><path
             id="path244"
             style="fill:#bcbbb4;fill-opacity:1;fill-rule:nonzero;stroke:none"
             d="m 839.898,2063.12 c 0,0 96.571,-433.51 47.247,-989.94 0,0 -393.532,-81.942 -389.93,693.54 2.465,531.39 342.683,296.4 342.683,296.4" /><path
             id="path246"
             style="fill:none;stroke:#949390;stroke-width:9.97087002;stroke-linecap:butt;stroke-linejoin:miter;stroke-miterlimit:10;stroke-dasharray:none;stroke-opacity:1"
             d="m 887.906,1179.21 c 0,0 -215.82,-62.56 -209.078,60.76 6.746,123.33 93.953,439.36 32.723,561.72 -61.227,122.36 -168.586,201.57 -168.586,201.57" /><path
             id="path248"
             style="fill:#efefed;fill-opacity:1;fill-rule:nonzero;stroke:none"
             d="M 824.719,3242.9 424.648,2234.82 c -10.757,-17.59 -14.75,-38.43 -11.23,-58.75 23.93,-138.18 -3.227,-979.95 86.406,-1128.93 l 452.266,33.69 -46.16,922.12 298.11,772.42" /><path
             id="path250"
             style="fill:none;stroke:#040606;stroke-width:5;stroke-linecap:butt;stroke-linejoin:miter;stroke-miterlimit:10;stroke-dasharray:none;stroke-opacity:1"
             d="m 897.344,2074.04 c 0,0 61.812,-833.97 59.84,-974.87" /><path
             id="path252"
             style="fill:none;stroke:#040606;stroke-width:5;stroke-linecap:butt;stroke-linejoin:miter;stroke-miterlimit:10;stroke-dasharray:none;stroke-opacity:1"
             d="M 1204.74,2750.78 907.492,1990.65" /><path
             id="path254"
             style="fill:none;stroke:#040606;stroke-width:5;stroke-linecap:butt;stroke-linejoin:miter;stroke-miterlimit:10;stroke-dasharray:none;stroke-opacity:1"
             d="m 947.391,1277.43 c 0,0 -347.621,-24.51 -497.493,-49.88" /><path
             id="path256"
             style="fill:none;stroke:#040606;stroke-width:5;stroke-linecap:butt;stroke-linejoin:miter;stroke-miterlimit:10;stroke-dasharray:none;stroke-opacity:1"
             d="m 854.445,1205.47 c -2.578,-19.9 11.469,-38.13 31.371,-40.71 19.907,-2.58 38.133,11.47 40.715,31.37 2.578,19.91 -11.468,38.13 -31.371,40.71 -19.906,2.58 -38.133,-11.46 -40.715,-31.37 z" /><path
             id="path258"
             style="fill:#63afe4;fill-opacity:1;fill-rule:nonzero;stroke:none"
             d="m 1333.26,2404.28 228.83,22.8 -9.59,95.77 -231.04,-10.73 11.8,-107.84" /><path
             id="path260"
             style="fill:#ed375b;fill-opacity:1;fill-rule:nonzero;stroke:none"
             d="m 3869.73,4182.89 c -6.95,0 -14.01,-1.16 -20.93,-3.59 -32.78,-11.57 -50.05,-47.66 -38.48,-80.44 5.61,-15.89 17.06,-28.63 32.26,-35.91 15.19,-7.25 32.31,-8.18 48.2,-2.57 15.88,5.6 28.62,17.05 35.9,32.25 7.26,15.19 8.18,32.3 2.58,48.19 -9.14,25.87 -33.54,42.07 -59.53,42.07 z m 0,-150.59 c -12.89,0 -25.73,2.88 -37.7,8.61 -21.08,10.08 -36.97,27.77 -44.75,49.81 -16.05,45.49 7.91,95.57 53.39,111.62 45.48,16.04 95.59,-7.9 111.63,-53.39 7.78,-22.04 6.5,-45.79 -3.58,-66.87 -10.09,-21.08 -27.77,-36.98 -49.81,-44.75 -9.53,-3.36 -19.38,-5.03 -29.18,-5.03" /><path
             id="path262"
             style="fill:none;stroke:#040606;stroke-width:5;stroke-linecap:butt;stroke-linejoin:miter;stroke-miterlimit:10;stroke-dasharray:none;stroke-opacity:1"
             d="m 1953.62,3089.51 c 0,0 -47.93,-24.17 -88.03,-19.67" /></g></g><path
         id="path264"
         style="fill:none;stroke:#63afe4;stroke-width:10;stroke-linecap:butt;stroke-linejoin:miter;stroke-miterlimit:10;stroke-dasharray:none;stroke-opacity:1"
         d="M 4269.27,2101.64 H 3194.3 c -2.49,0 -4.88,1 -6.63,2.78 l -114.99,116.88 c -11.47,11.47 -31.07,3.35 -31.07,-12.87 v -115.34 c -23.87,-12.53 -40.27,-37.54 -40.27,-66.23 V 715.539 c 0,-41.129 33.66,-74.777 74.79,-74.777 h 1193.14 c 41.13,0 74.79,33.648 74.79,74.777 V 2026.86 c 0,41.13 -33.66,74.78 -74.79,74.78 z" /><path
         id="path266"
         style="fill:none;stroke:#63afe4;stroke-width:10;stroke-linecap:butt;stroke-linejoin:miter;stroke-miterlimit:10;stroke-dasharray:none;stroke-opacity:1"
         d="m 3171.88,1676.96 h 984.86" /><path
         id="path268"
         style="fill:none;stroke:#63afe4;stroke-width:10;stroke-linecap:butt;stroke-linejoin:miter;stroke-miterlimit:10;stroke-dasharray:none;stroke-opacity:1"
         d="m 3171.88,1576.79 h 984.86" /><path
         id="path270"
         style="fill:none;stroke:#63afe4;stroke-width:10;stroke-linecap:butt;stroke-linejoin:miter;stroke-miterlimit:10;stroke-dasharray:none;stroke-opacity:1"
         d="m 3171.88,1080.34 h 984.86" /><path
         id="path272"
         style="fill:none;stroke:#63afe4;stroke-width:10;stroke-linecap:butt;stroke-linejoin:miter;stroke-miterlimit:10;stroke-dasharray:none;stroke-opacity:1"
         d="m 3171.88,980.16 h 984.86" /><path
         id="path274"
         style="fill:none;stroke:#63afe4;stroke-width:10;stroke-linecap:butt;stroke-linejoin:miter;stroke-miterlimit:10;stroke-dasharray:none;stroke-opacity:1"
         d="m 3171.88,879.988 h 984.86" /><path
         id="path276"
         style="fill:none;stroke:#63afe4;stroke-width:10;stroke-linecap:butt;stroke-linejoin:miter;stroke-miterlimit:10;stroke-dasharray:none;stroke-opacity:1"
         d="m 3171.88,1476.61 h 761.75" /><path
         id="path278"
         style="fill:none;stroke:#63afe4;stroke-width:10;stroke-linecap:butt;stroke-linejoin:miter;stroke-miterlimit:10;stroke-dasharray:none;stroke-opacity:1"
         d="m 3171.88,1376.44 h 761.75" /><path
         id="path280"
         style="fill:none;stroke:#63afe4;stroke-width:10;stroke-linecap:butt;stroke-linejoin:miter;stroke-miterlimit:10;stroke-dasharray:none;stroke-opacity:1"
         d="m 3171.88,1276.26 h 761.75" /><g
         transform="scale(10)"
         id="g282"><text
           id="text286"
           style="font-variant:normal;font-weight:normal;font-size:10.05700016px;font-family:PressStart2P;-inkscape-font-specification:PressStart2P-Regular;writing-mode:lr-tb;fill:#63afe4;fill-opacity:1;fill-rule:nonzero;stroke:none"
           transform="matrix(1,0,0,-1,318.077,179.26)"><tspan
             id="tspan284"
             y="0"
             x="0 10.057 20.114611 30.17161 40.229195 50.286198 60.343197 70.40078 80.457779">DIAGNOSIS</tspan></text>
</g></g></g></svg>