<?xml version="1.0" encoding="UTF-8" standalone="no"?>
<!-- Created with Inkscape (http://www.inkscape.org/) -->

<svg
   version="1.1"
   id="svg2"
   width="578.76001"
   height="537.41333"
   viewBox="0 0 578.76001 537.41333"
   sodipodi:docname="7683456_3716308.eps"
   xmlns:inkscape="http://www.inkscape.org/namespaces/inkscape"
   xmlns:sodipodi="http://sodipodi.sourceforge.net/DTD/sodipodi-0.dtd"
   xmlns="http://www.w3.org/2000/svg"
   xmlns:svg="http://www.w3.org/2000/svg">
  <defs
     id="defs6">
    <clipPath
       clipPathUnits="userSpaceOnUse"
       id="clipPath68">
      <path
         d="m 726.602,1059.1 c -31.61,373.7 -63.215,747.4 -94.829,1121.11 205.34,2.39 410.697,4.79 616.047,7.18 0.42,-15.89 0.77,-32.05 1.06,-48.44 v 0 c 0.26,-14.8 0.47,-29.77 0.63,-44.94 l -224.45,-5.25 -116.775,13.48 c 0,0 3.254,-6.27 10.625,-15.97 l -248.644,-5.82 c -2.762,-0.06 -4.95,-2.35 -4.883,-5.11 0.062,-2.72 2.289,-4.89 4.996,-4.89 0.039,0 0.082,0 0.121,0.01 l 256.395,6 c 29.609,-34.2 97.805,-90.86 227.305,-95.88 0,0 8.42,-63.91 19.19,-164.36 l -209.144,-8.53 c -1.41,-0.06 -2.738,-0.72 -3.641,-1.8 -0.902,-1.09 -1.304,-2.52 -1.105,-3.91 l 4.949,0.71 0.203,-5 -0.203,5 -4.949,-0.71 41.51,-288.42 c 0.36,-2.48 2.49,-4.29 4.95,-4.29 0.16,0 0.32,0.01 0.49,0.03 l 193.48,18.97 c 9.87,-129.32 17.74,-271.52 18.88,-405.45 0,0.02 0,0 0,0 v 0 0 c -164.08,-21.24 -328.13,-42.48 -492.208,-63.72 m 558.168,72.25 v 0 l 492.88,63.82 5.48,0.71 20.22,183.77 c 0.2,-0.02 0.41,-0.04 0.61,-0.04 l 0.88,0.06 1.76,0.28 c 24.08,-48.79 46.42,-106.97 67.09,-172.35 l 282.15,36.53 24.17,3.13 266.09,34.45 c -12.66,63.67 -25.31,128.98 -37.09,192.38 l -47.89,464.73 c 11.67,0.15 23.35,0.3 35.01,0.47 18.53,-218.95 37.05,-437.91 55.56,-656.85 -388.98,-50.37 -777.94,-100.72 -1166.92,-151.08 m -274.54,388.35 -40.042,278.21 204.272,8.34 c 7.87,-74.19 16.87,-166.97 24.71,-268.02 l -188.94,-18.53 m 1375.08,86.83 c -18.13,106.07 -31.3,197.42 -34.28,252.9 -1.27,23.6 -2.75,50.25 -4.39,79.19 1.48,0.02 2.96,0.04 4.44,0.06 l 34.23,-332.15 m -1135.55,456.28 -152.64,17.62 152.49,3.57 c 0.06,-7.03 0.11,-14.09 0.15,-21.19"
         id="path66" />
    </clipPath>
    <linearGradient
       x1="0"
       y1="0"
       x2="1"
       y2="0"
       gradientUnits="userSpaceOnUse"
       gradientTransform="matrix(1819.92,0,0,-1819.92,631.774,1629.81)"
       spreadMethod="pad"
       id="linearGradient74">
      <stop
         style="stop-opacity:1;stop-color:#4444a3"
         offset="0"
         id="stop70" />
      <stop
         style="stop-opacity:1;stop-color:#97359f"
         offset="1"
         id="stop72" />
    </linearGradient>
    <clipPath
       clipPathUnits="userSpaceOnUse"
       id="clipPath310">
      <path
         d="m 1218.81,1122.82 c -1.14,133.93 -9.01,276.13 -18.88,405.45 l 39.12,3.83 c -5.74,-145.53 -13.07,-286.54 -20.24,-409.26 m -19.64,415.4 c -7.84,101.05 -16.84,193.83 -24.71,268.02 l 73.12,2.98 c -1.85,-88.48 -4.69,-178.51 -8.14,-267.05 l -40.27,-3.95 m -25.78,277.98 c -10.77,100.45 -19.19,164.36 -19.19,164.36 -129.5,5.02 -197.696,61.68 -227.305,95.88 l 170.225,3.98 152.64,-17.62 c 0.41,-68.61 -0.14,-140.45 -1.42,-213.73 v 0 c -0.17,-9.92 -0.36,-19.86 -0.56,-29.83 l -74.39,-3.04 m -254.48,270.05 c -7.371,9.7 -10.625,15.97 -10.625,15.97 l 116.775,-13.48 -106.15,-2.49"
         id="path308" />
    </clipPath>
    <linearGradient
       x1="0"
       y1="0"
       x2="1"
       y2="0"
       gradientUnits="userSpaceOnUse"
       gradientTransform="matrix(1819.92,0,0,-1819.92,631.774,1629.81)"
       spreadMethod="pad"
       id="linearGradient316">
      <stop
         style="stop-opacity:1;stop-color:#27296a"
         offset="0"
         id="stop312" />
      <stop
         style="stop-opacity:1;stop-color:#57226f"
         offset="1"
         id="stop314" />
    </linearGradient>
    <clipPath
       clipPathUnits="userSpaceOnUse"
       id="clipPath332">
      <path
         d="m 1218.81,1122.82 v 0 l 65.96,8.54 v -0.01 c -21.97,-2.84 -43.99,-5.69 -65.96,-8.53"
         id="path330" />
    </clipPath>
    <linearGradient
       x1="0"
       y1="0"
       x2="1"
       y2="0"
       gradientUnits="userSpaceOnUse"
       gradientTransform="matrix(1819.92,0,0,-1819.92,631.774,1629.81)"
       spreadMethod="pad"
       id="linearGradient338">
      <stop
         style="stop-opacity:1;stop-color:#27296a"
         offset="0"
         id="stop334" />
      <stop
         style="stop-opacity:1;stop-color:#57226f"
         offset="1"
         id="stop336" />
    </linearGradient>
    <clipPath
       clipPathUnits="userSpaceOnUse"
       id="clipPath348">
      <path
         d="m 726.602,1059.1 1725.088,223.34 115.25,1329.12 c 0,0 753.18,100.53 964.6,893.36 211.4,792.83 -552.77,386.8 -672.8,100.92 -120.02,-285.89 -582.13,-592.44 -623.27,-288.54 -41.14,303.91 -78.77,866.81 -596.42,673.89 -517.65,-192.91 -349.78,-825.08 -349.78,-825.08 0,0 -651.481,-791.83 -469.137,-1113.13 0,0 -10.004,-342.51 -93.531,-993.88"
         id="path346" />
    </clipPath>
    <clipPath
       clipPathUnits="userSpaceOnUse"
       id="clipPath428">
      <path
         d="m 726.602,1059.1 1725.088,223.34 115.25,1329.12 c 0,0 753.18,100.53 964.6,893.36 211.4,792.83 -552.77,386.8 -672.8,100.92 -120.02,-285.89 -582.13,-592.44 -623.27,-288.54 -41.14,303.91 -78.77,866.81 -596.42,673.89 -517.65,-192.91 -349.78,-825.08 -349.78,-825.08 0,0 -651.481,-791.83 -469.137,-1113.13 0,0 -10.004,-342.51 -93.531,-993.88"
         id="path426" />
    </clipPath>
    <clipPath
       clipPathUnits="userSpaceOnUse"
       id="clipPath434">
      <path
         d="m 1248.88,2138.95 v 0 c -0.29,16.39 -0.64,32.55 -1.06,48.44 v 0 c 0.42,-15.89 0.77,-32.05 1.06,-48.45"
         id="path432" />
    </clipPath>
    <linearGradient
       x1="0"
       y1="0"
       x2="1"
       y2="0"
       gradientUnits="userSpaceOnUse"
       gradientTransform="matrix(1819.92,0,0,-1819.92,631.774,1629.81)"
       spreadMethod="pad"
       id="linearGradient440">
      <stop
         style="stop-opacity:1;stop-color:#3b3a9b"
         offset="0"
         id="stop436" />
      <stop
         style="stop-opacity:1;stop-color:#892a98"
         offset="1"
         id="stop438" />
    </linearGradient>
    <clipPath
       clipPathUnits="userSpaceOnUse"
       id="clipPath450">
      <path
         d="m 726.602,1059.1 1725.088,223.34 115.25,1329.12 c 0,0 753.18,100.53 964.6,893.36 211.4,792.83 -552.77,386.8 -672.8,100.92 -120.02,-285.89 -582.13,-592.44 -623.27,-288.54 -41.14,303.91 -78.77,866.81 -596.42,673.89 -517.65,-192.91 -349.78,-825.08 -349.78,-825.08 0,0 -651.481,-791.83 -469.137,-1113.13 0,0 -10.004,-342.51 -93.531,-993.88"
         id="path448" />
    </clipPath>
    <clipPath
       clipPathUnits="userSpaceOnUse"
       id="clipPath462">
      <path
         d="m 726.602,1059.1 1725.088,223.34 115.25,1329.12 c 0,0 753.18,100.53 964.6,893.36 211.4,792.83 -552.77,386.8 -672.8,100.92 -120.02,-285.89 -582.13,-592.44 -623.27,-288.54 -41.14,303.91 -78.77,866.81 -596.42,673.89 -517.65,-192.91 -349.78,-825.08 -349.78,-825.08 0,0 -651.481,-791.83 -469.137,-1113.13 0,0 -10.004,-342.51 -93.531,-993.88"
         id="path460" />
    </clipPath>
    <clipPath
       clipPathUnits="userSpaceOnUse"
       id="clipPath468">
      <path
         d="m 1249.78,2062.82 h -0.02 c -0.04,7.1 -0.09,14.16 -0.15,21.19 h 0.01 c 0.06,-7.02 0.11,-14.11 0.16,-21.19 m -0.27,31.19 c -0.16,15.17 -0.37,30.14 -0.63,44.93 h 0.02 c 0.26,-14.78 0.46,-29.78 0.62,-44.93 h -0.01"
         id="path466" />
    </clipPath>
    <linearGradient
       x1="0"
       y1="0"
       x2="1"
       y2="0"
       gradientUnits="userSpaceOnUse"
       gradientTransform="matrix(1819.92,0,0,-1819.92,631.774,1629.81)"
       spreadMethod="pad"
       id="linearGradient474">
      <stop
         style="stop-opacity:1;stop-color:#3b3a9b"
         offset="0"
         id="stop470" />
      <stop
         style="stop-opacity:1;stop-color:#892a98"
         offset="1"
         id="stop472" />
    </linearGradient>
    <clipPath
       clipPathUnits="userSpaceOnUse"
       id="clipPath484">
      <path
         d="m 726.602,1059.1 1725.088,223.34 115.25,1329.12 c 0,0 753.18,100.53 964.6,893.36 211.4,792.83 -552.77,386.8 -672.8,100.92 -120.02,-285.89 -582.13,-592.44 -623.27,-288.54 -41.14,303.91 -78.77,866.81 -596.42,673.89 -517.65,-192.91 -349.78,-825.08 -349.78,-825.08 0,0 -651.481,-791.83 -469.137,-1113.13 0,0 -10.004,-342.51 -93.531,-993.88"
         id="path482" />
    </clipPath>
    <clipPath
       clipPathUnits="userSpaceOnUse"
       id="clipPath494">
      <path
         d="m 726.602,1059.1 1725.088,223.34 115.25,1329.12 c 0,0 753.18,100.53 964.6,893.36 211.4,792.83 -552.77,386.8 -672.8,100.92 -120.02,-285.89 -582.13,-592.44 -623.27,-288.54 -41.14,303.91 -78.77,866.81 -596.42,673.89 -517.65,-192.91 -349.78,-825.08 -349.78,-825.08 0,0 -651.481,-791.83 -469.137,-1113.13 0,0 -10.004,-342.51 -93.531,-993.88"
         id="path492" />
    </clipPath>
    <clipPath
       clipPathUnits="userSpaceOnUse"
       id="clipPath500">
      <path
         d="m 1248.34,1849.09 c 1.28,73.28 1.83,145.12 1.42,213.73 h 0.02 c 0.4,-68.62 -0.15,-140.46 -1.44,-213.73 v 0"
         id="path498" />
    </clipPath>
    <linearGradient
       x1="0"
       y1="0"
       x2="1"
       y2="0"
       gradientUnits="userSpaceOnUse"
       gradientTransform="matrix(1819.92,0,0,-1819.92,631.774,1629.81)"
       spreadMethod="pad"
       id="linearGradient506">
      <stop
         style="stop-opacity:1;stop-color:#212357"
         offset="0"
         id="stop502" />
      <stop
         style="stop-opacity:1;stop-color:#451f5b"
         offset="1"
         id="stop504" />
    </linearGradient>
    <clipPath
       clipPathUnits="userSpaceOnUse"
       id="clipPath516">
      <path
         d="m 726.602,1059.1 1725.088,223.34 115.25,1329.12 c 0,0 753.18,100.53 964.6,893.36 211.4,792.83 -552.77,386.8 -672.8,100.92 -120.02,-285.89 -582.13,-592.44 -623.27,-288.54 -41.14,303.91 -78.77,866.81 -596.42,673.89 -517.65,-192.91 -349.78,-825.08 -349.78,-825.08 0,0 -651.481,-791.83 -469.137,-1113.13 0,0 -10.004,-342.51 -93.531,-993.88"
         id="path514" />
    </clipPath>
    <clipPath
       clipPathUnits="userSpaceOnUse"
       id="clipPath530">
      <path
         d="m 726.602,1059.1 1725.088,223.34 115.25,1329.12 c 0,0 753.18,100.53 964.6,893.36 211.4,792.83 -552.77,386.8 -672.8,100.92 -120.02,-285.89 -582.13,-592.44 -623.27,-288.54 -41.14,303.91 -78.77,866.81 -596.42,673.89 -517.65,-192.91 -349.78,-825.08 -349.78,-825.08 0,0 -651.481,-791.83 -469.137,-1113.13 0,0 -10.004,-342.51 -93.531,-993.88"
         id="path528" />
    </clipPath>
    <clipPath
       clipPathUnits="userSpaceOnUse"
       id="clipPath536">
      <path
         d="m 1248.9,2138.94 -0.02,0.01 c -0.29,16.39 -0.64,32.55 -1.06,48.44 h 0.01 c 0.43,-15.93 0.78,-32.01 1.07,-48.45"
         id="path534" />
    </clipPath>
    <linearGradient
       x1="0"
       y1="0"
       x2="1"
       y2="0"
       gradientUnits="userSpaceOnUse"
       gradientTransform="matrix(1819.92,0,0,-1819.92,631.774,1629.81)"
       spreadMethod="pad"
       id="linearGradient542">
      <stop
         style="stop-opacity:1;stop-color:#2d308e"
         offset="0"
         id="stop538" />
      <stop
         style="stop-opacity:1;stop-color:#761e90"
         offset="1"
         id="stop540" />
    </linearGradient>
    <clipPath
       clipPathUnits="userSpaceOnUse"
       id="clipPath552">
      <path
         d="m 726.602,1059.1 1725.088,223.34 115.25,1329.12 c 0,0 753.18,100.53 964.6,893.36 211.4,792.83 -552.77,386.8 -672.8,100.92 -120.02,-285.89 -582.13,-592.44 -623.27,-288.54 -41.14,303.91 -78.77,866.81 -596.42,673.89 -517.65,-192.91 -349.78,-825.08 -349.78,-825.08 0,0 -651.481,-791.83 -469.137,-1113.13 0,0 -10.004,-342.51 -93.531,-993.88"
         id="path550" />
    </clipPath>
  </defs>
  <sodipodi:namedview
     id="namedview4"
     pagecolor="#ffffff"
     bordercolor="#000000"
     borderopacity="0.25"
     inkscape:showpageshadow="2"
     inkscape:pageopacity="0.0"
     inkscape:pagecheckerboard="0"
     inkscape:deskcolor="#d1d1d1" />
  <g
     id="g8"
     inkscape:groupmode="layer"
     inkscape:label="ink_ext_XXXXXX"
     transform="matrix(1.3333333,0,0,-1.3333333,0,537.41333)">
    <g
       id="g10"
       transform="scale(0.1)">
      <path
         d="m 2389.76,3962.23 c -226.45,55.85 -433.63,81.71 -663.42,31.51 -203.62,-44.49 -393.91,-137.06 -564.13,-256.08 C 821.266,3499.25 552.988,3160.26 350.059,2800.17 121.496,2394.58 -12.082,1930.78 0.859375,1465.4 10.5,1118.99 119.566,747.809 401.594,546.43 625.703,386.398 921.828,361.441 1194.29,401.371 c 272.47,39.93 532.64,137.879 800,203.891 349.2,86.207 711.84,117.699 1070.67,92.98 229.63,-15.82 471.16,-52.621 681.71,40.379 140.74,62.18 252.26,177.289 339.06,304.319 248.9,364.22 311.94,839.99 204.95,1267.96 -106.99,427.97 -374.22,807.23 -716.4,1085.64 -342.19,278.42 -756.22,460.07 -1184.52,565.69"
         style="fill:#d5f1f8;fill-opacity:1;fill-rule:nonzero;stroke:none"
         id="path12" />
      <path
         d="m 971.434,384.602 v 0 c 74.766,0 149.656,6.039 222.856,16.769 51.34,7.527 102.26,17.109 152.85,28.149 v 0 c -50.59,-11.04 -101.51,-20.622 -152.84,-28.149 -73.21,-10.73 -148.1,-16.769 -222.866,-16.769 M 1699.79,523.52 v 0 c 97.84,28.582 195.68,57.339 294.5,81.742 272.17,67.187 552.54,101.148 832.88,101.148 79.33,0 158.64,-2.719 237.79,-8.168 v 0 0 c -79.15,5.449 -158.46,8.168 -237.79,8.168 -280.34,0 -560.71,-33.961 -832.88,-101.148 -98.82,-24.403 -196.66,-53.16 -294.5,-81.742 m 1707.43,154.089 c -111.68,0 -225.54,12.43 -336.66,20.243 111.12,-7.813 224.97,-20.243 336.64,-20.243 117.42,0 232.44,13.731 339.47,61.012 140.74,62.18 252.26,177.289 339.06,304.319 171.61,251.12 254.86,555.25 254.96,860.19 -0.1,-304.94 -83.35,-609.07 -254.96,-860.19 C 3998.93,915.91 3887.41,800.801 3746.67,738.621 3639.64,691.34 3524.64,677.609 3407.22,677.609 M 0.820313,1466.92 c -0.003907,0.14 -0.007813,0.26 -0.011719,0.4 0.003906,-0.14 0.007812,-0.26 0.011719,-0.4 m -0.042969,1.55 c -0.003906,0.15 -0.007813,0.28 -0.011719,0.44 0.003906,-0.14 0.007813,-0.3 0.011719,-0.44 m -0.039063,1.56 c -0.003906,0.16 -0.007812,0.27 -0.011718,0.42 0.003906,-0.14 0.007812,-0.27 0.011718,-0.42 m -0.046875,1.72 c 0,0.07 0,0.13 -0.003906,0.2 0.003906,-0.05 0.003906,-0.14 0.003906,-0.2 m -0.117187,4.97 c 0,0.06 0,0.09 -0.003906,0.14 0.003906,-0.05 0.003906,-0.08 0.003906,-0.14 m -0.035156,1.65 c -0.003907,0.04 0,0.03 -0.003907,0.06 0,-0.02 0.003907,-0.03 0.003907,-0.06 M 3574.28,3396.54 c -0.31,0.26 -0.65,0.53 -0.97,0.79 0.32,-0.26 0.65,-0.53 0.97,-0.79"
         style="fill:#e8f7fb;fill-opacity:1;fill-rule:nonzero;stroke:none"
         id="path14" />
      <path
         d="m 971.434,384.602 c -185.625,0 -370.352,37.269 -525.758,132.628 -14.973,9.192 -29.68,18.918 -44.082,29.2 C 119.566,747.809 10.5,1118.99 0.859375,1465.4 v 0 c -0.011719,0.5 -0.027344,1.01 -0.039062,1.52 -0.003907,0.14 -0.007813,0.26 -0.011719,0.4 -0.011719,0.37 -0.019531,0.77 -0.03125,1.15 -0.003906,0.14 -0.007813,0.3 -0.011719,0.44 -0.007812,0.37 -0.019531,0.75 -0.027344,1.12 -0.003906,0.15 -0.007812,0.28 -0.011718,0.42 -0.011719,0.43 -0.023438,0.88 -0.035157,1.3 0,0.06 0,0.15 -0.003906,0.2 -0.039062,1.59 -0.078125,3.18 -0.113281,4.77 0,0.06 0,0.09 -0.003906,0.14 -0.011719,0.5 -0.023438,1.02 -0.03125,1.51 0,0.03 -0.003907,0.04 -0.003907,0.06 -5.988286,273.21 38.378944,545.69 122.628844,805.98 128.441,-28.86 256.551,-59.61 384.906,-88.53 -4.113,-4.49 -7.265,-8.31 -8.922,-11.03 l -0.054,-0.12 c -18.239,-25.18 -27.949,-60.13 -24.625,-98.65 37.746,-437.1 75.488,-874.21 113.226,-1311.31 6.055,-70.098 52.575,-121.579 106.598,-121.579 4.68,0 9.41,0.391 14.18,1.18 194.808,32.399 389.617,64.801 584.417,97.199 l -18.19,-72.441 v 0 l -43.29,-172.438 c -8.72,-34.711 15.78,-68.961 51.45,-71.921 l 64.28,-5.25 c -50.59,-11.04 -101.51,-20.622 -152.85,-28.149 -73.2,-10.73 -148.09,-16.769 -222.856,-16.769 M 1699.79,523.52 c -24.5,11.289 -39.1,38.992 -31.9,67.089 l 47.92,187.121 c 0.01,0 0.01,0 0.01,0 l 11.81,46.141 c 220.92,36.738 441.85,73.481 662.76,110.219 13.02,2.16 25.29,6.66 36.51,12.93 l -0.01,-0.04 1.99,1.122 c 0,0 70.91,33.058 87.46,52.658 26.1,25.31 41.49,62.26 38.27,100.33 -3.32,39.26 -6.64,78.53 -9.96,117.79 v 0 c -0.29,3.42 -0.58,6.82 -0.87,10.24 -22.45,265.5 -44.91,531 -67.36,796.5 -4.2,49.62 -8.39,99.21 -12.59,148.82 v 0 c -0.02,0.2 -0.04,0.4 -0.05,0.6 -0.01,0.1 -0.02,0.2 -0.03,0.3 -1.29,13.96 -5.02,27.35 -10.72,39.7 6.31,64.81 12.65,129.61 19.02,194.42 36.31,30.47 70.93,63.27 103.69,98.55 179.63,193.42 287.02,443.59 457.44,645.17 116.68,138.03 260.69,249.6 419.64,335.86 41.01,-29.38 81.27,-59.84 120.49,-91.71 0.32,-0.26 0.66,-0.53 0.97,-0.79 v 0 c 342.18,-278.41 609.41,-657.67 716.4,-1085.64 33.22,-132.91 50.05,-270.42 50.01,-407.77 -0.1,-304.94 -83.35,-609.07 -254.96,-860.19 -86.8,-127.03 -198.32,-242.139 -339.06,-304.319 -107.03,-47.281 -222.05,-61.012 -339.47,-61.012 -111.67,0 -225.52,12.43 -336.64,20.243 -1.87,0.128 -3.73,0.257 -5.6,0.39 v 0 c -79.15,5.449 -158.46,8.168 -237.79,8.168 -280.34,0 -560.71,-33.961 -832.88,-101.148 -98.82,-24.403 -196.66,-53.16 -294.5,-81.742"
         style="fill:#c0e9f4;fill-opacity:1;fill-rule:nonzero;stroke:none"
         id="path16" />
      <path
         d="m 2858.99,651.879 c 50.48,0.851 102.57,1.211 149.28,-17.949 36.29,-14.891 71.09,-53.219 56.21,-89.508 -5.11,-12.512 -15.38,-22.184 -26.23,-30.231 -48.15,-35.73 -111.25,-45.812 -171.1,-42.07 -59.84,3.731 -118.09,19.988 -176.8,32.188 -72.88,15.152 -146.88,24.082 -220.79,33 -42.5,5.132 -85.1,10.261 -127.88,12.382 -7.69,0.379 -17.65,-0.41 -28.38,-1.211 -25.25,-1.878 -54.78,-3.761 -69.08,9.711 -50.19,47.219 114.72,58.391 141.23,62.45 156.62,23.941 315.38,28.589 473.54,31.238"
         style="fill:#d5f1f8;fill-opacity:1;fill-rule:nonzero;stroke:none"
         id="path18" />
      <path
         d="m 2890.31,471.391 c -7.75,0 -15.48,0.25 -23.16,0.73 -59.84,3.731 -118.09,19.988 -176.8,32.188 -72.88,15.152 -146.88,24.082 -220.79,33 -42.5,5.132 -85.1,10.261 -127.88,12.382 -1.37,0.071 -2.8,0.098 -4.3,0.098 -6.95,0 -15.25,-0.66 -24.08,-1.309 -8.83,-0.66 -18.19,-1.308 -27.23,-1.308 -16.82,0 -32.55,2.258 -41.85,11.019 -6.57,6.18 -9.45,11.739 -9.44,16.75 0.04,33.27 127.63,42.168 150.67,45.7 156.62,23.941 315.38,28.589 473.54,31.238 9.45,0.16 18.96,0.301 28.47,0.301 41.32,0 82.84,-2.68 120.81,-18.25 30.41,-12.481 59.77,-41.41 59.74,-71.809 -0.01,-5.883 -1.12,-11.82 -3.53,-17.699 -5.11,-12.512 -15.38,-22.184 -26.23,-30.231 -41.97,-31.14 -95.31,-42.8 -147.94,-42.8"
         style="fill:#c0e9f4;fill-opacity:1;fill-rule:nonzero;stroke:none"
         id="path20" />
      <path
         d="m 3152.14,2053.57 c -68.04,40.66 -144.69,54.24 -217.51,44.01 l -154.39,139.15 26.98,-184.61 c -44.91,-27.29 -84.05,-65.56 -112.89,-113.81 -94.59,-158.26 -42.98,-363.23 115.27,-457.82 158.24,-94.59 363.21,-42.99 457.8,115.27 94.59,158.25 42.99,363.22 -115.26,457.81"
         style="fill:#ffffff;fill-opacity:1;fill-rule:nonzero;stroke:none"
         id="path22" />
      <path
         d="m 3015.81,1613.43 h -69.89 v 307.2 h 69.89 v -307.2"
         style="fill:#3871c1;fill-opacity:1;fill-rule:nonzero;stroke:none"
         id="path24" />
      <path
         d="m 2827.27,1732.08 v 69.9 h 307.19 v -69.9 h -307.19"
         style="fill:#3871c1;fill-opacity:1;fill-rule:nonzero;stroke:none"
         id="path26" />
      <path
         d="m 3152.14,2053.57 2.57,4.29 c -54.42,32.53 -114.31,47.99 -173.42,47.98 -15.88,0 -31.7,-1.11 -47.36,-3.31 l 0.7,-4.95 3.35,3.71 -164.7,148.44 28.99,-198.33 4.95,0.72 -2.6,4.28 c -45.58,-27.7 -85.32,-66.56 -114.58,-115.53 -32.55,-54.44 -48.05,-114.37 -48.05,-173.52 0,-115.28 58.89,-227.69 165.05,-291.15 54.44,-32.54 114.37,-48.05 173.51,-48.04 115.29,-0.01 227.69,58.88 291.15,165.03 32.54,54.45 48.04,114.38 48.04,173.53 0.01,115.28 -58.88,227.69 -165.03,291.14 l -2.57,-4.29 -2.57,-4.29 c 103.04,-61.59 160.16,-170.65 160.17,-282.56 0,-57.41 -15.03,-115.53 -46.63,-168.4 -61.58,-103.03 -170.65,-160.16 -282.56,-160.16 -57.4,0 -115.52,15.03 -168.38,46.62 -103.04,61.59 -160.17,170.66 -160.18,282.57 0,57.41 15.03,115.52 46.63,168.39 28.41,47.54 66.95,85.22 111.19,112.11 l 2.83,1.72 -25.45,174.17 145.83,-131.44 2.31,0.33 c 15.19,2.13 30.55,3.21 45.96,3.21 57.37,0 115.45,-14.98 168.28,-46.56 l 2.57,4.29"
         style="fill:#2c3a92;fill-opacity:1;fill-rule:nonzero;stroke:none"
         id="path28" />
      <path
         d="m 3494.09,2654.49 c -57.41,0 -110.11,-20.05 -151.59,-53.47 l -147.71,29.14 85.38,-104.76 c -17.78,-33.66 -27.89,-72.01 -27.89,-112.72 0,-133.55 108.26,-241.82 241.81,-241.82 133.55,0 241.82,108.27 241.82,241.82 0,133.55 -108.27,241.81 -241.82,241.81"
         style="fill:#ffffff;fill-opacity:1;fill-rule:nonzero;stroke:none"
         id="path30" />
      <path
         d="m 3517,2490.5 c 13.83,10.08 33.38,12.81 48.44,4.69 17.89,-9.65 25.83,-32.28 23.21,-52.44 -2.6,-20.16 -13.83,-38.16 -26.44,-54.11 -13.45,-17.01 -28.73,-32.42 -44.55,-47.23 -12.57,-11.78 -20.1,-29.25 -38.68,-16.01 -17.78,12.68 -35.24,26.11 -49.51,42.65 -23.37,27.1 -37.68,66.86 -27.88,102.51 6.95,25.25 34.85,46.08 59.27,36.65 20.84,-8.05 26.41,-30.49 32.82,-49.1 5.66,12.14 12.2,24.28 23.32,32.39"
         style="fill:#ef3357;fill-opacity:1;fill-rule:nonzero;stroke:none"
         id="path32" />
      <path
         d="m 3494.09,2654.49 v 5 c -58.58,0 -112.41,-20.47 -154.73,-54.58 l 3.14,-3.89 0.97,4.9 -161.32,31.83 94.14,-115.5 3.88,3.15 -4.42,2.34 c -18.14,-34.36 -28.47,-73.52 -28.47,-115.06 0,-136.32 110.5,-246.81 246.81,-246.82 136.31,0.01 246.82,110.5 246.82,246.82 0,136.31 -110.51,246.8 -246.82,246.81 v -5 -5 c 65.41,-0.01 124.58,-26.5 167.46,-69.36 42.86,-42.87 69.36,-102.04 69.36,-167.45 0,-65.41 -26.5,-124.59 -69.36,-167.46 -42.88,-42.86 -102.05,-69.35 -167.46,-69.36 -65.41,0.01 -124.58,26.5 -167.45,69.36 -42.87,42.87 -69.36,102.05 -69.36,167.46 0,39.88 9.9,77.41 27.31,110.39 l 1.54,2.93 -78.71,96.57 136.4,-26.91 1.82,1.46 c 40.63,32.74 92.21,52.36 148.45,52.37 v 5"
         style="fill:#2c3a92;fill-opacity:1;fill-rule:nonzero;stroke:none"
         id="path34" />
      <path
         d="m 1199.42,3484.76 c 34.12,-46.17 49.33,-100.47 47.1,-153.7 l 111.24,-101.46 -134.99,6.4 c -16.51,-34.31 -41.33,-65.23 -74.08,-89.44 -107.39,-79.38 -258.807,-56.67 -338.19,50.73 -79.379,107.39 -56.676,258.8 50.723,338.19 107.398,79.38 258.807,56.67 338.197,-50.72"
         style="fill:#ffffff;fill-opacity:1;fill-rule:nonzero;stroke:none"
         id="path36" />
      <path
         d="m 979.293,3446.84 c -20.523,16.52 -50.395,22.18 -74.164,10.8 -28.238,-13.51 -42.125,-47.73 -39.602,-78.94 2.528,-31.2 18.465,-59.74 36.676,-85.2 15.063,-20.72 31.465,-40.37 48.969,-59.07 16.324,-17.44 37.598,-31.6 55.838,-47.46 1.89,-1.65 4.02,-3.38 6.53,-3.41 2.32,-0.02 4.36,1.43 6.2,2.83 34.94,26.56 66.18,57.97 92.53,93.08 19.45,25.91 36.61,54.87 40.88,86.98 6.09,45.87 -29.53,120.75 -86.25,101.93 -32.64,-10.83 -42.87,-44.94 -54.13,-73.1 -7.79,19.1 -16.957,38.26 -33.477,51.56"
         style="fill:#ef3357;fill-opacity:1;fill-rule:nonzero;stroke:none"
         id="path38" />
      <path
         d="m 872.293,3326.04 h 36.301 c 1.191,0 2.25,0.74 2.66,1.86 l 8.816,23.93 9.192,-87.98 c 0.152,-1.45 1.383,-2.55 2.836,-2.55 1.453,0.01 2.672,1.13 2.804,2.58 l 10.481,113.08 10.66,-81.03 c 0.184,-1.4 1.371,-2.45 2.781,-2.47 1.414,-0.01 2.621,1.02 2.832,2.42 l 8.828,58.13 12.59,-59.23 c 0.301,-1.42 1.621,-2.39 3.067,-2.23 1.449,0.15 2.539,1.36 2.539,2.82 v 35.07 h 60.46 c 1.21,0 2.29,0.77 2.68,1.92 l 5.7,16.72 5.54,-79.97 c 0.1,-1.47 1.31,-2.61 2.78,-2.64 1.47,-0.02 2.72,1.08 2.87,2.54 l 14.35,137.91 20.05,-143.17 c 0.2,-1.48 1.52,-2.54 3,-2.44 1.49,0.11 2.64,1.34 2.64,2.83 v 66.55 h 49.28 c 1.57,0 2.84,1.27 2.84,2.83 0,1.57 -1.27,2.84 -2.84,2.84 h -52.12 l -2,-0.83 -0.83,-2.01 v -28.7 l -17.63,125.9 c -0.2,1.42 -1.43,2.47 -2.86,2.44 -1.43,-0.02 -2.62,-1.12 -2.77,-2.54 l -13.36,-128.48 -4.26,61.37 c -0.09,1.35 -1.12,2.44 -2.46,2.61 -1.34,0.18 -2.61,-0.62 -3.05,-1.89 l -9.58,-28.12 h -61.262 l -2.004,-0.83 -0.832,-2.01 v -10.93 l -10.219,48.08 c -0.285,1.34 -1.488,2.28 -2.855,2.24 -1.368,-0.04 -2.512,-1.05 -2.719,-2.41 l -8.164,-53.75 -11.352,86.27 c -0.187,1.44 -1.418,2.5 -2.863,2.46 -1.445,-0.02 -2.637,-1.13 -2.77,-2.57 l -10.16,-109.62 -7.469,71.5 c -0.136,1.31 -1.16,2.35 -2.468,2.51 -1.309,0.17 -2.555,-0.59 -3.008,-1.83 l -12.348,-33.51 h -34.324 c -1.566,0 -2.836,-1.27 -2.836,-2.83 0,-1.57 1.27,-2.84 2.836,-2.84"
         style="fill:#ffffff;fill-opacity:1;fill-rule:nonzero;stroke:none"
         id="path40" />
      <path
         d="m 1199.42,3484.76 -4.03,-2.97 c 31.3,-42.35 46.34,-91.64 46.34,-140.54 0,-3.33 -0.07,-6.66 -0.21,-9.98 l -0.09,-2.33 102.72,-93.69 -124.45,5.9 -1.44,-2.99 c -16.17,-33.6 -40.46,-63.86 -72.54,-87.58 -42.36,-31.31 -91.66,-46.38 -140.57,-46.39 -72.584,0.01 -144.177,33.23 -190.63,96.07 -31.305,42.36 -46.387,91.66 -46.391,140.57 0.008,72.58 33.223,144.18 96.066,190.63 42.36,31.3 91.66,46.38 140.565,46.39 72.59,-0.01 144.18,-33.22 190.63,-96.06 l 4.03,2.97 4.02,2.97 c -48.4,65.47 -123.07,100.13 -198.68,100.12 -50.955,0 -102.393,-15.74 -146.51,-48.35 -65.477,-48.4 -100.129,-123.06 -100.121,-198.67 -0.004,-50.96 15.738,-102.4 48.351,-146.52 48.395,-65.47 123.059,-100.13 198.67,-100.12 50.96,0 102.4,15.74 146.51,48.35 33.42,24.7 58.77,56.28 75.62,91.29 l -4.51,2.17 -0.24,-5 148.84,-7.05 -121.48,110.81 -3.37,-3.7 5,-0.2 c 0.14,3.46 0.21,6.92 0.21,10.39 0.01,50.94 -15.69,102.37 -48.29,146.48 l -4.02,-2.97"
         style="fill:#2c3a92;fill-opacity:1;fill-rule:nonzero;stroke:none"
         id="path42" />
      <path
         d="m 1651.39,580.309 92.96,362.902 -421.37,-71.82 -91.57,-364.7 c -8.72,-34.711 15.78,-68.961 51.45,-71.921 l 487.7,-39.801 1.8,0.191 270.15,89.129 c 5.05,1.582 4.08,9 -1.21,9.231 l -336.22,14.449 c -36.81,1.59 -62.83,36.64 -53.69,72.34"
         style="fill:#f4f6f5;fill-opacity:1;fill-rule:nonzero;stroke:none"
         id="path44" />
      <path
         d="m 2042.51,484.289 16.3,4.449 c 2.06,0.563 3.46,2.473 3.38,4.594 l -0.25,7.52 -20.74,-6.161 1.31,-10.402"
         style="fill:#f4f6f5;fill-opacity:1;fill-rule:nonzero;stroke:none"
         id="path46" />
      <path
         d="M 1667.89,590.609 1760.84,953.52 1339.47,881.699 1247.9,517 c -8.72,-34.711 15.78,-68.961 51.45,-71.918 l 474.06,-39.32 1.8,0.187 283.79,88.653 c 5.05,1.578 4.08,9 -1.21,9.218 l -336.21,14.461 c -36.81,1.59 -62.83,36.641 -53.69,72.328"
         style="fill:#d3d4d3;fill-opacity:1;fill-rule:nonzero;stroke:none"
         id="path48" />
      <path
         d="m 1274.7,679.129 18.19,72.441 v 0 l -18.19,-72.441 v 0 m 441.11,98.601 11.82,46.141 v 0 l -11.81,-46.141 v 0"
         style="fill:#86a9b4;fill-opacity:1;fill-rule:nonzero;stroke:none"
         id="path50" />
      <path
         d="m 1274.7,679.129 18.19,72.441 c 4.83,0.801 9.69,1.61 14.51,2.41 l -17.41,-69.351 c -5.21,-1.848 -10.31,-3.688 -15.29,-5.5"
         style="fill:#b1b2b3;fill-opacity:1;fill-rule:nonzero;stroke:none"
         id="path52" />
      <path
         d="m 1289.99,684.629 17.41,69.351 c 140.09,23.301 280.14,46.59 420.23,69.891 l -11.82,-46.141 c -171.08,-14.07 -320.89,-55.898 -425.82,-93.101"
         style="fill:#96999c;fill-opacity:1;fill-rule:nonzero;stroke:none"
         id="path54" />
      <path
         d="m 2488.43,1000.57 23.37,21.82 v 44.71 l -23.54,11.86 c -29.8,345.22 -59.62,690.45 -89.43,1035.68 -5.27,61.07 -59.26,111.02 -119.96,110.98 -551.02,-0.32 -1102.04,-0.64 -1653.054,-0.95 l -51.484,33.85 c 0,0 -65.144,-57.2 -75.184,-73.67 l -0.054,-0.12 c -18.239,-25.18 -27.949,-60.13 -24.625,-98.65 37.746,-437.1 75.488,-874.21 113.226,-1311.31 6.578,-76.168 60.93,-130.348 120.778,-120.399 560.637,93.238 1121.277,186.481 1681.917,279.719 13.02,2.16 25.29,6.66 36.51,12.93 l -0.01,-0.04 1.99,1.122 c 0,0 70.99,33.097 87.49,52.698 7.44,8.84 -7.89,7.71 -27.94,-0.23"
         style="fill:#bbbcbd;fill-opacity:1;fill-rule:nonzero;stroke:none"
         id="path56" />
      <path
         d="M 2455.38,969.242 C 1894.75,874.059 1334.11,778.879 773.469,683.699 713.621,673.531 659.27,728.84 652.691,806.609 614.945,1252.84 577.207,1699.06 539.465,2145.28 c -6.578,77.77 37.711,141.42 98.414,141.46 568.661,0.34 1137.321,0.67 1705.991,1 60.7,0.04 114.69,-50.95 119.96,-113.3 30.26,-357.78 60.53,-715.57 90.78,-1073.35 5.27,-62.36 -39.37,-121.68 -99.23,-131.848"
         style="fill:#ffffff;fill-opacity:1;fill-rule:nonzero;stroke:none"
         id="path58" />
      <path
         d="m 2343.87,2287.74 c -568.67,-0.33 -1137.33,-0.66 -1705.991,-1 -60.703,-0.04 -104.992,-63.69 -98.414,-141.46 33.598,-397.25 67.203,-794.5 100.801,-1191.76 634.794,88.46 1269.594,176.9 1904.384,265.36 -26.94,318.52 -53.88,637.04 -80.82,955.56 -5.27,62.35 -59.26,113.34 -119.96,113.3"
         style="fill:#100f0d;fill-opacity:1;fill-rule:nonzero;stroke:none"
         id="path60" />
      <g
         id="g62">
        <g
           id="g64"
           clip-path="url(#clipPath68)">
          <path
             d="m 726.602,1059.1 c -31.61,373.7 -63.215,747.4 -94.829,1121.11 205.34,2.39 410.697,4.79 616.047,7.18 0.42,-15.89 0.77,-32.05 1.06,-48.44 v 0 c 0.26,-14.8 0.47,-29.77 0.63,-44.94 l -224.45,-5.25 -116.775,13.48 c 0,0 3.254,-6.27 10.625,-15.97 l -248.644,-5.82 c -2.762,-0.06 -4.95,-2.35 -4.883,-5.11 0.062,-2.72 2.289,-4.89 4.996,-4.89 0.039,0 0.082,0 0.121,0.01 l 256.395,6 c 29.609,-34.2 97.805,-90.86 227.305,-95.88 0,0 8.42,-63.91 19.19,-164.36 l -209.144,-8.53 c -1.41,-0.06 -2.738,-0.72 -3.641,-1.8 -0.902,-1.09 -1.304,-2.52 -1.105,-3.91 l 4.949,0.71 0.203,-5 -0.203,5 -4.949,-0.71 41.51,-288.42 c 0.36,-2.48 2.49,-4.29 4.95,-4.29 0.16,0 0.32,0.01 0.49,0.03 l 193.48,18.97 c 9.87,-129.32 17.74,-271.52 18.88,-405.45 0,0.02 0,0 0,0 v 0 0 c -164.08,-21.24 -328.13,-42.48 -492.208,-63.72 m 558.168,72.25 v 0 l 492.88,63.82 5.48,0.71 20.22,183.77 c 0.2,-0.02 0.41,-0.04 0.61,-0.04 l 0.88,0.06 1.76,0.28 c 24.08,-48.79 46.42,-106.97 67.09,-172.35 l 282.15,36.53 24.17,3.13 266.09,34.45 c -12.66,63.67 -25.31,128.98 -37.09,192.38 l -47.89,464.73 c 11.67,0.15 23.35,0.3 35.01,0.47 18.53,-218.95 37.05,-437.91 55.56,-656.85 -388.98,-50.37 -777.94,-100.72 -1166.92,-151.08 m -274.54,388.35 -40.042,278.21 204.272,8.34 c 7.87,-74.19 16.87,-166.97 24.71,-268.02 l -188.94,-18.53 m 1375.08,86.83 c -18.13,106.07 -31.3,197.42 -34.28,252.9 -1.27,23.6 -2.75,50.25 -4.39,79.19 1.48,0.02 2.96,0.04 4.44,0.06 l 34.23,-332.15 m -1135.55,456.28 -152.64,17.62 152.49,3.57 c 0.06,-7.03 0.11,-14.09 0.15,-21.19"
             style="fill:url(#linearGradient74);fill-opacity:1;fill-rule:nonzero;stroke:none"
             id="path76" />
        </g>
      </g>
      <path
         d="m 670.5,2070.46 1673.94,39.17 c 2.77,0.06 4.95,2.36 4.89,5.12 -0.07,2.76 -2.36,4.94 -5.12,4.88 L 670.266,2080.45 c -2.762,-0.06 -4.95,-2.35 -4.883,-5.11 0.066,-2.76 2.355,-4.95 5.117,-4.88"
         style="fill:#ffffff;fill-opacity:1;fill-rule:nonzero;stroke:none"
         id="path78" />
      <path
         d="m 704.102,2123.34 c 0.242,-5.44 -3.985,-10.04 -9.422,-10.28 -5.446,-0.23 -10.043,3.99 -10.278,9.43 -0.234,5.44 3.985,10.04 9.426,10.28 5.442,0.23 10.039,-3.99 10.274,-9.43"
         style="fill:#ec1d27;fill-opacity:1;fill-rule:nonzero;stroke:none"
         id="path80" />
      <path
         d="m 740.598,2124.92 c 0.234,-5.45 -3.989,-10.05 -9.43,-10.28 -5.438,-0.24 -10.043,3.98 -10.277,9.42 -0.235,5.45 3.984,10.05 9.429,10.28 5.438,0.23 10.043,-3.98 10.278,-9.42"
         style="fill:#f9a72d;fill-opacity:1;fill-rule:nonzero;stroke:none"
         id="path82" />
      <path
         d="m 777.086,2126.49 c 0.234,-5.44 -3.984,-10.04 -9.43,-10.28 -5.437,-0.23 -10.039,3.99 -10.277,9.43 -0.234,5.44 3.988,10.04 9.43,10.28 5.445,0.23 10.043,-3.99 10.277,-9.43"
         style="fill:#41b93c;fill-opacity:1;fill-rule:nonzero;stroke:none"
         id="path84" />
      <path
         d="m 1791.28,2041.73 0.1,-5 548.45,11.16 70.31,-682.25 -510.53,-49.68 -103.38,726.48 -4.95,-0.71 0.1,-5 -0.1,5 -4.95,-0.7 104.06,-731.21 c 0.37,-2.65 2.77,-4.53 5.43,-4.27 l 520.29,50.62 c 1.33,0.13 2.54,0.78 3.39,1.81 0.84,1.04 1.24,2.35 1.1,3.68 l -71.3,691.84 c -0.26,2.58 -2.48,4.54 -5.07,4.48 l -553.05,-11.25 c -1.43,-0.03 -2.78,-0.67 -3.71,-1.76 -0.93,-1.09 -1.34,-2.53 -1.14,-3.94 l 4.95,0.7"
         style="fill:#ffffff;fill-opacity:1;fill-rule:nonzero;stroke:none"
         id="path86" />
      <path
         d="m 1804.61,1943.81 549.36,11.67 c 2.77,0.06 4.96,2.35 4.9,5.11 -0.06,2.76 -2.35,4.95 -5.11,4.89 l -549.36,-11.67 c -2.76,-0.06 -4.95,-2.34 -4.89,-5.1 0.06,-2.76 2.34,-4.95 5.1,-4.9"
         style="fill:#ffffff;fill-opacity:1;fill-rule:nonzero;stroke:none"
         id="path88" />
      <path
         d="m 964.449,1802.69 0.203,-5 684.378,27.94 27.03,-240.64 -665.83,-65.28 -40.832,283.69 -4.949,-0.71 0.203,-5 -0.203,5 -4.949,-0.71 41.51,-288.42 c 0.38,-2.64 2.78,-4.52 5.44,-4.26 l 675.64,66.24 c 1.32,0.13 2.55,0.79 3.39,1.83 0.84,1.03 1.24,2.37 1.09,3.7 l -28.12,250.3 c -0.3,2.61 -2.55,4.55 -5.18,4.44 l -689.024,-28.12 c -1.41,-0.06 -2.738,-0.72 -3.641,-1.8 -0.902,-1.09 -1.304,-2.52 -1.105,-3.91 l 4.949,0.71"
         style="fill:#ffffff;fill-opacity:1;fill-rule:nonzero;stroke:none"
         id="path90" />
      <path
         d="m 557.91,1508.33 v 0 c -4.832,-0.41 -9.129,3.21 -9.539,8.05 l -44,516.48 c -0.41,4.84 3.207,9.13 8.047,9.55 4.836,0.41 9.133,-3.22 9.543,-8.05 l 43.996,-516.48 c 0.41,-4.84 -3.207,-9.14 -8.047,-9.55"
         style="fill:#3b393d;fill-opacity:1;fill-rule:nonzero;stroke:none"
         id="path92" />
      <path
         d="M 1507.26,194.871 V 172.23 L 2269.29,0 3271.66,496.469 v 11.269 L 2660.31,562.59 1507.26,194.871"
         style="fill:#bbbcbd;fill-opacity:1;fill-rule:nonzero;stroke:none"
         id="path94" />
      <path
         d="M 1507.26,194.871 2656.45,602.5 3271.66,507.738 2271.38,12.8711 1507.26,194.871"
         style="fill:#f4f6f5;fill-opacity:1;fill-rule:nonzero;stroke:none"
         id="path96" />
      <path
         d="m 2602.39,448.781 43.14,-10.5 43.8,20.25 -40.83,9.981 -46.11,-19.731"
         style="fill:#8f9195;fill-opacity:1;fill-rule:nonzero;stroke:none"
         id="path98" />
      <path
         d="m 2484.81,436.309 46.14,-11.239 46.28,19.7 -42.84,10.468 -49.58,-18.929"
         style="fill:#8f9195;fill-opacity:1;fill-rule:nonzero;stroke:none"
         id="path100" />
      <path
         d="m 2419.05,411.219 50.45,-12.289 46.29,19.699 -47.15,11.512 -49.59,-18.922"
         style="fill:#8f9195;fill-opacity:1;fill-rule:nonzero;stroke:none"
         id="path102" />
      <path
         d="m 2353.3,386.121 54.76,-13.332 46.3,19.699 -51.45,12.563 -49.61,-18.93"
         style="fill:#8f9195;fill-opacity:1;fill-rule:nonzero;stroke:none"
         id="path104" />
      <path
         d="m 2287.55,361.02 59.07,-14.372 46.3,19.692 -55.75,13.629 -49.62,-18.949"
         style="fill:#8f9195;fill-opacity:1;fill-rule:nonzero;stroke:none"
         id="path106" />
      <path
         d="m 2813.45,428.211 -59.21,14.461 -42.78,-20.453 59.45,-14.469 42.54,20.461"
         style="fill:#8f9195;fill-opacity:1;fill-rule:nonzero;stroke:none"
         id="path108" />
      <path
         d="m 2655.28,435.898 46.52,-11.328 42.94,20.418 -45.81,11.203 -43.65,-20.293"
         style="fill:#8f9195;fill-opacity:1;fill-rule:nonzero;stroke:none"
         id="path110" />
      <path
         d="m 2700,373.629 -59.71,14.59 -42.8,-20.457 59.97,-14.602 42.54,20.469"
         style="fill:#8f9195;fill-opacity:1;fill-rule:nonzero;stroke:none"
         id="path112" />
      <path
         d="m 2643.28,346.332 -59.96,14.648 -42.8,-20.449 60.21,-14.672 42.55,20.473"
         style="fill:#8f9195;fill-opacity:1;fill-rule:nonzero;stroke:none"
         id="path114" />
      <path
         d="m 2756.72,400.922 -59.45,14.519 -42.8,-20.453 59.71,-14.539 42.54,20.473"
         style="fill:#8f9195;fill-opacity:1;fill-rule:nonzero;stroke:none"
         id="path116" />
      <path
         d="m 2221.8,335.93 63.38,-15.438 46.32,19.707 -60.06,14.68 -49.64,-18.949"
         style="fill:#8f9195;fill-opacity:1;fill-rule:nonzero;stroke:none"
         id="path118" />
      <path
         d="m 2541.15,422.59 46.15,-11.238 43.8,20.257 -43.83,10.711 -46.12,-19.73"
         style="fill:#8f9195;fill-opacity:1;fill-rule:nonzero;stroke:none"
         id="path120" />
      <path
         d="m 2048.86,162.359 -73.87,18.039 -46.2,-19.757 76.22,-18.571 43.85,20.289"
         style="fill:#8f9195;fill-opacity:1;fill-rule:nonzero;stroke:none"
         id="path122" />
      <path
         d="m 2397.67,159.441 -83.7,20.45 -42.43,-20.512 84.66,-20.617 41.47,20.679"
         style="fill:#8f9195;fill-opacity:1;fill-rule:nonzero;stroke:none"
         id="path124" />
      <path
         d="m 2189.5,127.992 -61.98,15.149 -42.83,-20.469 62.24,-15.16 42.57,20.48"
         style="fill:#8f9195;fill-opacity:1;fill-rule:nonzero;stroke:none"
         id="path126" />
      <path
         d="m 2246.22,155.289 -61.73,15.082 -42.82,-20.461 61.98,-15.101 42.57,20.48"
         style="fill:#8f9195;fill-opacity:1;fill-rule:nonzero;stroke:none"
         id="path128" />
      <path
         d="m 2342.28,131.82 -84.86,20.731 -42.42,-20.5 85.81,-20.903 41.47,20.672"
         style="fill:#8f9195;fill-opacity:1;fill-rule:nonzero;stroke:none"
         id="path130" />
      <path
         d="m 2115.97,145.961 -55.41,13.539 -43.7,-20.32 56.13,-13.66 42.98,20.441"
         style="fill:#8f9195;fill-opacity:1;fill-rule:nonzero;stroke:none"
         id="path132" />
      <path
         d="m 2024.55,260.641 76.3,-18.571 46.34,19.711 -72.96,17.821 -49.68,-18.961"
         style="fill:#8f9195;fill-opacity:1;fill-rule:nonzero;stroke:none"
         id="path134" />
      <path
         d="m 1827.3,185.359 89.22,-21.73 46.36,19.723 -85.86,20.98 -49.72,-18.973"
         style="fill:#8f9195;fill-opacity:1;fill-rule:nonzero;stroke:none"
         id="path136" />
      <path
         d="m 2090.3,285.742 71.99,-17.531 46.33,19.711 -68.65,16.769 -49.67,-18.949"
         style="fill:#8f9195;fill-opacity:1;fill-rule:nonzero;stroke:none"
         id="path138" />
      <path
         d="m 1958.8,235.539 80.6,-19.629 46.35,19.731 -77.26,18.879 -49.69,-18.981"
         style="fill:#8f9195;fill-opacity:1;fill-rule:nonzero;stroke:none"
         id="path140" />
      <path
         d="m 1893.05,210.449 84.91,-20.679 46.36,19.73 -81.56,19.922 -49.71,-18.973"
         style="fill:#8f9195;fill-opacity:1;fill-rule:nonzero;stroke:none"
         id="path142" />
      <path
         d="m 2156.05,310.832 67.68,-16.48 46.33,19.718 -64.36,15.711 -49.65,-18.949"
         style="fill:#8f9195;fill-opacity:1;fill-rule:nonzero;stroke:none"
         id="path144" />
      <path
         d="m 2479.91,396.391 49.16,-11.961 43.8,20.25 -46.82,11.449 -46.14,-19.738"
         style="fill:#8f9195;fill-opacity:1;fill-rule:nonzero;stroke:none"
         id="path146" />
      <path
         d="m 2573.25,363.441 -48.42,11.829 -43.67,-20.282 49.14,-11.976 42.95,20.429"
         style="fill:#8f9195;fill-opacity:1;fill-rule:nonzero;stroke:none"
         id="path148" />
      <path
         d="m 2296.21,317.809 58.18,-14.168 43.81,20.269 -55.85,13.641 -46.14,-19.742"
         style="fill:#8f9195;fill-opacity:1;fill-rule:nonzero;stroke:none"
         id="path150" />
      <path
         d="m 2418.68,370.199 52.16,-12.711 43.81,20.274 -49.83,12.179 -46.14,-19.742"
         style="fill:#8f9195;fill-opacity:1;fill-rule:nonzero;stroke:none"
         id="path152" />
      <path
         d="m 2458.94,309.07 -50.18,12.25 -43.67,-20.289 50.89,-12.39 42.96,20.429"
         style="fill:#8f9195;fill-opacity:1;fill-rule:nonzero;stroke:none"
         id="path154" />
      <path
         d="m 2357.44,344 55.17,-13.43 43.82,20.262 -52.84,12.906 L 2357.44,344"
         style="fill:#8f9195;fill-opacity:1;fill-rule:nonzero;stroke:none"
         id="path156" />
      <path
         d="m 2516.1,336.25 -49.31,12.051 -43.66,-20.301 50.02,-12.18 42.95,20.43"
         style="fill:#8f9195;fill-opacity:1;fill-rule:nonzero;stroke:none"
         id="path158" />
      <path
         d="m 2401.78,281.891 -51.06,12.468 -43.67,-20.3 51.77,-12.61 42.96,20.442"
         style="fill:#8f9195;fill-opacity:1;fill-rule:nonzero;stroke:none"
         id="path160" />
      <path
         d="m 2687.58,417.809 -46.69,11.402 -43.64,-20.281 47.38,-11.539 42.95,20.418"
         style="fill:#8f9195;fill-opacity:1;fill-rule:nonzero;stroke:none"
         id="path162" />
      <path
         d="m 2539.21,381.961 48.26,-11.762 42.94,20.43 -47.55,11.609 -43.65,-20.277"
         style="fill:#8f9195;fill-opacity:1;fill-rule:nonzero;stroke:none"
         id="path164" />
      <path
         d="m 2190.98,220.109 53.5,-13.039 42.97,20.442 -52.79,12.898 -43.68,-20.301"
         style="fill:#8f9195;fill-opacity:1;fill-rule:nonzero;stroke:none"
         id="path166" />
      <path
         d="m 2344.61,254.699 -51.91,12.692 -43.68,-20.309 52.63,-12.82 42.96,20.437"
         style="fill:#8f9195;fill-opacity:1;fill-rule:nonzero;stroke:none"
         id="path168" />
      <path
         d="m 2359.67,209.879 -61.23,14.953 -42.81,-20.461 61.47,-14.973 42.57,20.481"
         style="fill:#8f9195;fill-opacity:1;fill-rule:nonzero;stroke:none"
         id="path170" />
      <path
         d="m 2230.29,200.332 -53.67,13.109 -43.68,-20.3 54.39,-13.243 42.96,20.434"
         style="fill:#8f9195;fill-opacity:1;fill-rule:nonzero;stroke:none"
         id="path172" />
      <path
         d="m 2302.94,182.582 -61.47,15.02 -42.83,-20.473 61.74,-15.027 42.56,20.48"
         style="fill:#8f9195;fill-opacity:1;fill-rule:nonzero;stroke:none"
         id="path174" />
      <path
         d="m 2529.84,291.75 -60.47,14.77 -42.81,-20.461 60.72,-14.789 42.56,20.48"
         style="fill:#8f9195;fill-opacity:1;fill-rule:nonzero;stroke:none"
         id="path176" />
      <path
         d="m 2416.39,237.16 -60.97,14.91 -42.81,-20.468 61.22,-14.922 42.56,20.48"
         style="fill:#8f9195;fill-opacity:1;fill-rule:nonzero;stroke:none"
         id="path178" />
      <path
         d="m 2473.12,264.461 -60.73,14.828 -42.81,-20.457 60.98,-14.852 42.56,20.481"
         style="fill:#8f9195;fill-opacity:1;fill-rule:nonzero;stroke:none"
         id="path180" />
      <path
         d="m 2173.73,265.41 64.19,-15.621 43.84,20.262 -61.86,15.121 -46.17,-19.762"
         style="fill:#8f9195;fill-opacity:1;fill-rule:nonzero;stroke:none"
         id="path182" />
      <path
         d="m 2112.5,239.219 67.2,-16.36 43.84,20.27 -64.87,15.851 -46.17,-19.761"
         style="fill:#8f9195;fill-opacity:1;fill-rule:nonzero;stroke:none"
         id="path184" />
      <path
         d="m 2234.97,291.621 61.18,-14.91 43.83,20.269 -58.86,14.379 -46.15,-19.738"
         style="fill:#8f9195;fill-opacity:1;fill-rule:nonzero;stroke:none"
         id="path186" />
      <path
         d="m 2051.26,213.031 70.21,-17.101 43.84,20.281 -67.87,16.578 -46.18,-19.758"
         style="fill:#8f9195;fill-opacity:1;fill-rule:nonzero;stroke:none"
         id="path188" />
      <path
         d="m 1990.03,186.832 73.21,-17.832 43.85,20.281 -70.88,17.321 -46.18,-19.77"
         style="fill:#8f9195;fill-opacity:1;fill-rule:nonzero;stroke:none"
         id="path190" />
      <path
         d="m 2173.14,173.141 -54.55,13.328 -43.69,-20.297 55.26,-13.461 42.98,20.43"
         style="fill:#8f9195;fill-opacity:1;fill-rule:nonzero;stroke:none"
         id="path192" />
      <path
         d="m 2586.55,319.039 -60.21,14.711 -42.8,-20.449 60.47,-14.731 42.54,20.469"
         style="fill:#8f9195;fill-opacity:1;fill-rule:nonzero;stroke:none"
         id="path194" />
      <path
         d="m 2286.9,104.199 -86.01,21.02 -42.43,-20.52 86.96,-21.1677 41.48,20.6677"
         style="fill:#8f9195;fill-opacity:1;fill-rule:nonzero;stroke:none"
         id="path196" />
      <path
         d="m 2353.18,129.16 -41.32,-20.711 61.79,-15.0506 41.78,20.5506 -62.25,15.211"
         style="fill:#8f9195;fill-opacity:1;fill-rule:nonzero;stroke:none"
         id="path198" />
      <path
         d="m 2359.53,86.4609 -61.56,15.0391 -41.32,-20.6992 61.11,-14.8906 41.77,20.5507"
         style="fill:#8f9195;fill-opacity:1;fill-rule:nonzero;stroke:none"
         id="path200" />
      <path
         d="m 2408.39,156.82 -41.32,-20.699 62.49,-15.223 41.77,20.551 -62.94,15.371"
         style="fill:#8f9195;fill-opacity:1;fill-rule:nonzero;stroke:none"
         id="path202" />
      <path
         d="m 2463.6,184.492 -41.32,-20.711 63.18,-15.39 41.77,20.55 -63.63,15.551"
         style="fill:#8f9195;fill-opacity:1;fill-rule:nonzero;stroke:none"
         id="path204" />
      <path
         d="m 1990.64,135.422 -76.88,18.777 -48.11,-20.57 81.05,-18.52 43.94,20.313"
         style="fill:#8f9195;fill-opacity:1;fill-rule:nonzero;stroke:none"
         id="path206" />
      <path
         d="m 1814.34,188.512 49.91,18.937 -40.16,9.813 -49.63,-19.043 39.88,-9.707"
         style="fill:#8f9195;fill-opacity:1;fill-rule:nonzero;stroke:none"
         id="path208" />
      <path
         d="m 2453.06,187.07 -82.56,20.16 -42.41,-20.511 83.5,-20.34 41.47,20.691"
         style="fill:#8f9195;fill-opacity:1;fill-rule:nonzero;stroke:none"
         id="path210" />
      <path
         d="m 2132.78,100.711 -62.24,15.199 -41.19,-19.6795 63.81,-14.5821 39.62,19.0626"
         style="fill:#8f9195;fill-opacity:1;fill-rule:nonzero;stroke:none"
         id="path212" />
      <path
         d="m 2058.81,118.77 -56.28,13.75 -43.53,-20.219 58.22,-13.3127 41.59,19.7817"
         style="fill:#8f9195;fill-opacity:1;fill-rule:nonzero;stroke:none"
         id="path214" />
      <path
         d="m 1852.88,136.551 48.57,20.66 -90.17,22.031 -54.39,-20.762 95.99,-21.929"
         style="fill:#8f9195;fill-opacity:1;fill-rule:nonzero;stroke:none"
         id="path216" />
      <path
         d="m 1798.29,182.422 -39.72,9.699 -55.58,-21.32 40.37,-9.219 54.93,20.84"
         style="fill:#8f9195;fill-opacity:1;fill-rule:nonzero;stroke:none"
         id="path218" />
      <path
         d="m 2606.11,488.988 46.01,17.453 -47.19,10.438 -44,-16.891 45.18,-11"
         style="fill:#8f9195;fill-opacity:1;fill-rule:nonzero;stroke:none"
         id="path220" />
      <path
         d="m 2883.54,455.281 -46.58,-22.511 73.13,-17.809 47.86,23.871 -74.41,16.449"
         style="fill:#8f9195;fill-opacity:1;fill-rule:nonzero;stroke:none"
         id="path222" />
      <path
         d="m 2242.77,73.832 -36.17,-18.1132 61.74,-14.1094 35.29,17.3594 -60.86,14.8632"
         style="fill:#8f9195;fill-opacity:1;fill-rule:nonzero;stroke:none"
         id="path224" />
      <path
         d="m 2919.18,412.738 69.4,-16.898 50.8,24.98 -72.21,15.969 -47.99,-24.051"
         style="fill:#8f9195;fill-opacity:1;fill-rule:nonzero;stroke:none"
         id="path226" />
      <path
         d="m 2905.27,405.781 -41.3,-20.699 68.71,-16.742 41.75,20.539 -69.16,16.902"
         style="fill:#8f9195;fill-opacity:1;fill-rule:nonzero;stroke:none"
         id="path228" />
      <path
         d="m 2850.07,378.121 -41.31,-20.699 68.02,-16.57 41.75,20.539 -68.46,16.73"
         style="fill:#8f9195;fill-opacity:1;fill-rule:nonzero;stroke:none"
         id="path230" />
      <path
         d="m 2231.51,76.5898 -87.16,21.2891 -39.24,-18.9687 89.87,-20.5391 36.53,18.2187"
         style="fill:#8f9195;fill-opacity:1;fill-rule:nonzero;stroke:none"
         id="path232" />
      <path
         d="m 2896.14,408.012 -73.33,17.91 -42.38,-20.5 74.27,-18.082 41.44,20.672"
         style="fill:#8f9195;fill-opacity:1;fill-rule:nonzero;stroke:none"
         id="path234" />
      <path
         d="m 2840.76,380.398 -74.48,18.192 -42.39,-20.5 75.42,-18.371 41.45,20.679"
         style="fill:#8f9195;fill-opacity:1;fill-rule:nonzero;stroke:none"
         id="path236" />
      <path
         d="m 2813.17,470.832 -44.74,-21.371 59.21,-14.43 46.42,22.348 -60.89,13.453"
         style="fill:#8f9195;fill-opacity:1;fill-rule:nonzero;stroke:none"
         id="path238" />
      <path
         d="m 2713.32,462.879 45.64,-11.117 44.59,21.199 -46.43,10.269 -43.8,-20.351"
         style="fill:#8f9195;fill-opacity:1;fill-rule:nonzero;stroke:none"
         id="path240" />
      <path
         d="m 2663.62,474.98 40.13,-9.769 43.63,20.18 -39.18,8.66 -44.58,-19.071"
         style="fill:#8f9195;fill-opacity:1;fill-rule:nonzero;stroke:none"
         id="path242" />
      <path
         d="m 2785.37,352.77 -75.63,18.468 -42.4,-20.488 76.58,-18.648 41.45,20.668"
         style="fill:#8f9195;fill-opacity:1;fill-rule:nonzero;stroke:none"
         id="path244" />
      <path
         d="m 2674.6,297.531 -77.94,19.051 -42.4,-20.512 78.89,-19.211 41.45,20.672"
         style="fill:#8f9195;fill-opacity:1;fill-rule:nonzero;stroke:none"
         id="path246" />
      <path
         d="m 2508.44,214.68 -81.4,19.89 -42.41,-20.511 82.35,-20.059 41.46,20.68"
         style="fill:#8f9195;fill-opacity:1;fill-rule:nonzero;stroke:none"
         id="path248" />
      <path
         d="m 2563.83,242.301 -80.24,19.597 -42.42,-20.5 81.19,-19.769 41.47,20.672"
         style="fill:#8f9195;fill-opacity:1;fill-rule:nonzero;stroke:none"
         id="path250" />
      <path
         d="m 1880.32,213.551 49.9,18.937 -40.6,9.922 -49.61,-19.051 40.31,-9.808"
         style="fill:#8f9195;fill-opacity:1;fill-rule:nonzero;stroke:none"
         id="path252" />
      <path
         d="m 2729.99,325.148 -76.8,18.762 -42.39,-20.5 77.74,-18.93 41.45,20.668"
         style="fill:#8f9195;fill-opacity:1;fill-rule:nonzero;stroke:none"
         id="path254" />
      <path
         d="m 2616.31,486.5 37.52,-9.129 44.39,18.879 -35.69,7.898 -46.22,-17.648"
         style="fill:#8f9195;fill-opacity:1;fill-rule:nonzero;stroke:none"
         id="path256" />
      <path
         d="m 2619.21,269.922 -79.09,19.308 -42.4,-20.492 80.04,-19.496 41.45,20.68"
         style="fill:#8f9195;fill-opacity:1;fill-rule:nonzero;stroke:none"
         id="path258" />
      <path
         d="m 2550.56,461.41 41.83,-10.191 46.27,19.691 -38.54,9.422 -49.56,-18.922"
         style="fill:#8f9195;fill-opacity:1;fill-rule:nonzero;stroke:none"
         id="path260" />
      <path
         d="m 2078.27,288.672 49.85,18.91 -41.93,10.25 -49.57,-19.023 41.65,-10.137"
         style="fill:#8f9195;fill-opacity:1;fill-rule:nonzero;stroke:none"
         id="path262" />
      <path
         d="m 2012.29,263.629 49.86,18.922 -41.48,10.14 -49.59,-19.019 41.21,-10.043"
         style="fill:#8f9195;fill-opacity:1;fill-rule:nonzero;stroke:none"
         id="path264" />
      <path
         d="m 2210.23,338.738 49.82,18.91 -42.81,10.461 -49.54,-19 42.53,-10.371"
         style="fill:#8f9195;fill-opacity:1;fill-rule:nonzero;stroke:none"
         id="path266" />
      <path
         d="m 1946.31,238.59 49.88,18.93 -41.05,10.019 -49.6,-19.027 40.77,-9.922"
         style="fill:#8f9195;fill-opacity:1;fill-rule:nonzero;stroke:none"
         id="path268" />
      <path
         d="m 2144.25,313.711 49.83,18.91 -42.36,10.348 -49.56,-19.008 42.09,-10.25"
         style="fill:#8f9195;fill-opacity:1;fill-rule:nonzero;stroke:none"
         id="path270" />
      <path
         d="m 2474.15,438.898 49.77,18.891 -44.58,10.902 -49.49,-19 44.3,-10.793"
         style="fill:#8f9195;fill-opacity:1;fill-rule:nonzero;stroke:none"
         id="path272" />
      <path
         d="m 2495.39,474.84 44.75,-10.891 49.74,18.883 -45.03,10.988 -49.46,-18.98"
         style="fill:#8f9195;fill-opacity:1;fill-rule:nonzero;stroke:none"
         id="path274" />
      <path
         d="m 2276.21,363.781 49.81,18.91 -43.25,10.571 -49.54,-19.012 42.98,-10.469"
         style="fill:#8f9195;fill-opacity:1;fill-rule:nonzero;stroke:none"
         id="path276" />
      <path
         d="m 2408.18,413.859 49.77,18.903 -44.14,10.777 -49.5,-18.988 43.87,-10.692"
         style="fill:#8f9195;fill-opacity:1;fill-rule:nonzero;stroke:none"
         id="path278" />
      <path
         d="m 2342.19,388.82 49.79,18.899 -43.7,10.679 -49.51,-19 43.42,-10.578"
         style="fill:#8f9195;fill-opacity:1;fill-rule:nonzero;stroke:none"
         id="path280" />
      <path
         d="m 2793.48,350.66 -320.1,-158.25 63.87,-15.551 320.54,158.09 -64.31,15.711"
         style="fill:#8f9195;fill-opacity:1;fill-rule:nonzero;stroke:none"
         id="path282" />
      <path
         d="m 2623.53,523.43 113.9,44.3 274.81,-37.07 -138.18,-62.148 -250.53,54.918"
         style="fill:#8f9195;fill-opacity:1;fill-rule:nonzero;stroke:none"
         id="path284" />
      <path
         d="m 2974.43,499.07 53.18,25.262 171.53,-28.453 -147.13,-67.168 -66.89,18.777 87.72,37.301 -98.41,14.281"
         style="fill:#8f9195;fill-opacity:1;fill-rule:nonzero;stroke:none"
         id="path286" />
      <path
         d="m 2098.9,386.762 -105.03,-37.813 72.41,-16.109 101.93,38.269 -69.31,15.653"
         style="fill:#8f9195;fill-opacity:1;fill-rule:nonzero;stroke:none"
         id="path288" />
      <path
         d="m 1959.69,336.648 -105.11,-37.859 75.98,-16.898 102,38.289 -72.87,16.468"
         style="fill:#8f9195;fill-opacity:1;fill-rule:nonzero;stroke:none"
         id="path290" />
      <path
         d="m 1794.85,230.941 102.06,38.309 -76.43,17.27 -105.2,-37.879 79.57,-17.7"
         style="fill:#8f9195;fill-opacity:1;fill-rule:nonzero;stroke:none"
         id="path292" />
      <path
         d="m 1681.28,236.398 -96.52,-34.75 83.73,-18.148 92.76,34.82 -79.97,18.078"
         style="fill:#8f9195;fill-opacity:1;fill-rule:nonzero;stroke:none"
         id="path294" />
      <path
         d="m 2238.11,436.891 -104.95,-37.782 68.83,-15.328 101.88,38.258 -65.76,14.852"
         style="fill:#8f9195;fill-opacity:1;fill-rule:nonzero;stroke:none"
         id="path296" />
      <path
         d="m 2377.32,487.02 -104.87,-37.77 65.26,-14.52 101.81,38.219 -62.2,14.071"
         style="fill:#8f9195;fill-opacity:1;fill-rule:nonzero;stroke:none"
         id="path298" />
      <path
         d="m 2411.74,499.41 61.68,-13.719 101.76,38.188 -58.66,13.25 -104.78,-37.719"
         style="fill:#8f9195;fill-opacity:1;fill-rule:nonzero;stroke:none"
         id="path300" />
      <path
         d="m 2723.5,579.57 -63.81,9.121 -108.65,-39.121 58.1,-12.929 114.36,42.929"
         style="fill:#8f9195;fill-opacity:1;fill-rule:nonzero;stroke:none"
         id="path302" />
      <g
         id="g304">
        <g
           id="g306"
           clip-path="url(#clipPath310)">
          <path
             d="m 1218.81,1122.82 c -1.14,133.93 -9.01,276.13 -18.88,405.45 l 39.12,3.83 c -5.74,-145.53 -13.07,-286.54 -20.24,-409.26 m -19.64,415.4 c -7.84,101.05 -16.84,193.83 -24.71,268.02 l 73.12,2.98 c -1.85,-88.48 -4.69,-178.51 -8.14,-267.05 l -40.27,-3.95 m -25.78,277.98 c -10.77,100.45 -19.19,164.36 -19.19,164.36 -129.5,5.02 -197.696,61.68 -227.305,95.88 l 170.225,3.98 152.64,-17.62 c 0.41,-68.61 -0.14,-140.45 -1.42,-213.73 v 0 c -0.17,-9.92 -0.36,-19.86 -0.56,-29.83 l -74.39,-3.04 m -254.48,270.05 c -7.371,9.7 -10.625,15.97 -10.625,15.97 l 116.775,-13.48 -106.15,-2.49"
             style="fill:url(#linearGradient316);fill-opacity:1;fill-rule:nonzero;stroke:none"
             id="path318" />
        </g>
      </g>
      <path
         d="m 926.895,2076.46 c -3.067,3.53 -5.719,6.84 -7.985,9.81 l 106.15,2.49 72.06,-8.32 -170.225,-3.98"
         style="fill:#7a7d82;fill-opacity:1;fill-rule:nonzero;stroke:none"
         id="path320" />
      <path
         d="m 1199.93,1528.27 c -0.25,3.33 -0.51,6.65 -0.76,9.97 l 40.27,3.95 c -0.13,-3.35 -0.26,-6.75 -0.39,-10.09 l -39.12,-3.83 m -25.47,277.99 c -0.36,3.37 -0.71,6.67 -1.07,9.96 l 74.39,3.04 c -0.06,-3.34 -0.13,-6.67 -0.2,-10.02 l -73.12,-2.98"
         style="fill:#7a7d82;fill-opacity:1;fill-rule:nonzero;stroke:none"
         id="path322" />
      <path
         d="m 1218.81,1122.82 v 0 c 21.97,2.84 43.99,5.69 65.96,8.54 v -0.01 l -65.96,-8.53"
         style="fill:#100f0d;fill-opacity:1;fill-rule:nonzero;stroke:none"
         id="path324" />
      <g
         id="g326">
        <g
           id="g328"
           clip-path="url(#clipPath332)">
          <path
             d="m 1218.81,1122.82 v 0 l 65.96,8.54 v -0.01 c -21.97,-2.84 -43.99,-5.69 -65.96,-8.53"
             style="fill:url(#linearGradient338);fill-opacity:1;fill-rule:nonzero;stroke:none"
             id="path340" />
        </g>
      </g>
      <g
         id="g342">
        <g
           id="g344"
           clip-path="url(#clipPath348)">
          <path
             d="m 2961.78,3531.23 c 2.65,18.2 5.56,36.34 8.55,54.46 5.77,35.17 7.6,90.53 48.38,104.94 1.78,0.62 3.6,1.15 5.44,1.55 7.5,1.64 15.45,1.22 22.75,-1.18 4.49,-1.48 8.81,-3.77 12.03,-7.23 4.29,-4.64 6.25,-10.93 7.73,-17.07 4.19,-17.36 5.66,-35.35 4.33,-53.15 -0.4,-5.48 -0.56,-12.12 4.04,-15.14 9.41,-6.16 21.31,5.67 26,12.34 34.04,48.31 71.89,96.4 123.77,124.71 12.23,6.68 27.66,12.06 39.53,4.76 8.91,-5.49 12.79,-16.85 12.2,-27.3 -0.59,-10.46 -4.88,-20.29 -9.11,-29.87 20.58,3.51 40.29,21.22 59.68,13.51 14.02,-5.58 20.17,-23.02 17.74,-37.92 -2.45,-14.89 -11.37,-27.78 -20.06,-40.12 13.69,13.21 32.46,27.46 49.81,19.69 12.02,-5.38 17.63,-20.02 16.52,-33.14 -1.11,-13.12 -7.5,-25.12 -13.76,-36.7 12.01,1.09 21.39,14.38 33.3,12.42 6.72,-1.11 11.82,-7.18 13.63,-13.76 1.81,-6.58 0.91,-13.58 -0.46,-20.27 -6.08,-29.79 -20.85,-57 -36.04,-83.35 -30.74,-53.34 -63.98,-105.24 -99.57,-155.48 -12.93,-18.25 -26.94,-36.95 -46.96,-46.91 -29.98,-14.89 -65.97,-6.82 -97.65,3.96 -44.77,15.21 -87.9,35.24 -128.4,59.63 -12.97,7.81 -25.8,16.19 -36.15,27.25 -22.03,23.59 -28.88,55.94 -27.11,87.32 1.74,30.84 5.4,61.5 9.84,92.05"
             style="fill:#eea88e;fill-opacity:1;fill-rule:nonzero;stroke:none"
             id="path350" />
          <path
             d="m 3345.8,3445.35 1.16,0.24 c 1.51,0.64 2.23,2.38 1.58,3.9 -42.42,100.6 -195.94,170.1 -197.48,170.78 -1.51,0.61 -3.27,-0.01 -3.93,-1.5 -0.67,-1.5 0,-3.27 1.5,-3.93 1.52,-0.68 152.91,-69.23 194.44,-167.67 0.47,-1.14 1.58,-1.82 2.73,-1.82"
             style="fill:#b5674f;fill-opacity:1;fill-rule:nonzero;stroke:none"
             id="path352" />
          <path
             d="m 3201.3,3587.2 2.07,0.84 c 30.13,29.27 65.17,90.93 66.65,93.55 0.81,1.43 0.29,3.25 -1.13,4.06 -1.43,0.79 -3.24,0.3 -4.06,-1.13 -0.36,-0.63 -36.1,-63.54 -65.61,-92.21 -1.18,-1.15 -1.2,-3.02 -0.06,-4.2 l 2.14,-0.91"
             style="fill:#b5674f;fill-opacity:1;fill-rule:nonzero;stroke:none"
             id="path354" />
          <path
             d="m 3264.73,3543.47 1.81,0.62 c 35.67,27.45 60.9,72.66 61.96,74.58 0.8,1.44 0.27,3.24 -1.17,4.04 -1.4,0.82 -3.26,0.28 -4.05,-1.17 -0.25,-0.45 -25.71,-46.06 -60.37,-72.74 -1.3,-1 -1.55,-2.87 -0.55,-4.17 l 2.37,-1.16"
             style="fill:#b5674f;fill-opacity:1;fill-rule:nonzero;stroke:none"
             id="path356" />
          <path
             d="m 3317.93,3491.1 1.84,0.63 c 32.14,25.14 59.04,73.16 60.18,75.2 0.79,1.43 0.28,3.24 -1.16,4.04 -1.43,0.81 -3.26,0.3 -4.05,-1.16 -0.27,-0.48 -27.46,-49 -58.64,-73.38 -1.29,-1.02 -1.52,-2.89 -0.51,-4.19 l 2.34,-1.14"
             style="fill:#b5674f;fill-opacity:1;fill-rule:nonzero;stroke:none"
             id="path358" />
          <path
             d="m 3141.59,3468.86 c 1.32,0 2.52,0.89 2.87,2.22 6.09,23 10.22,55.01 -4.64,76.82 -6.51,9.55 -18.98,16.33 -31.03,22.91 -15.93,8.68 -32.39,17.65 -33.92,32.36 -0.15,1.63 -1.67,2.79 -3.27,2.65 -1.63,-0.17 -2.81,-1.62 -2.65,-3.27 1.84,-17.82 19.7,-27.55 36.99,-36.97 11.43,-6.24 23.27,-12.67 28.95,-21.02 13.61,-19.97 9.59,-50.15 3.81,-71.96 -0.42,-1.59 0.54,-3.22 2.13,-3.64 l 0.76,-0.1"
             style="fill:#b5674f;fill-opacity:1;fill-rule:nonzero;stroke:none"
             id="path360" />
          <path
             d="m 1840.03,2932.89 c 30.92,93.65 131.9,144.45 225.57,113.58 25.93,-8.56 637.68,-202.8 885.96,389.46 145.39,23.77 329.4,-138.08 329.4,-138.08 -195.92,-467.37 -551.23,-603.3 -814.8,-635.04 -49.49,-5.96 -97.54,-8.42 -143.09,-8.42 -206.33,0 -361.58,50.32 -369.47,52.92 -93.64,30.93 -144.5,131.92 -113.57,225.58"
             style="fill:#ffffff;fill-opacity:1;fill-rule:nonzero;stroke:none"
             id="path362" />
          <path
             d="m 2065.6,3046.47 c -7.45,2.45 -14.94,4.21 -22.43,5.65 l -205.43,-127.54 c -25.37,-91.25 24.98,-187.25 115.86,-217.27 7.89,-2.6 163.14,-52.92 369.47,-52.92 45.55,0 93.6,2.46 143.09,8.42 20.84,2.51 42.31,5.76 64.17,9.69 -83.59,135.62 -107.52,261.38 -112.94,342.47 -183.81,-22.02 -339.01,27.28 -351.79,31.5"
             style="fill:#e9eaea;fill-opacity:1;fill-rule:nonzero;stroke:none"
             id="path364" />
          <path
             d="m 2328.02,1750.79 c 0,0 380.36,-1721.9502 270.64,-2587.009 0,0 -268.21,-101.769 -475.47,0 0,0 -51.02,1688.578 -319.23,2221.459 L 1562.38,-810.781 c 0,0 -142.14,-127.18 -446.92,25.48 l 223.53,2633.931 989.03,-97.84"
             style="fill:#ef3357;fill-opacity:1;fill-rule:nonzero;stroke:none"
             id="path366" />
          <path
             d="m 1803.96,1379.61 0.88,0.06 28.08,4.42 c 1.84,0.29 3.42,1.49 4.22,3.17 54.08,115.74 59.39,276.05 59.42,277.63 0.1,3.11 -2.34,5.69 -5.44,5.79 -3.6,-0.32 -5.69,-2.34 -5.79,-5.44 -0.06,-1.59 -5.21,-157.1 -57.12,-270.5 l -17.89,-2.83 c 3.69,36.4 18.61,195.12 6.29,274.02 -0.5,3.06 -3.52,4.98 -6.43,4.69 -3.06,-0.48 -5.17,-3.35 -4.69,-6.43 13.44,-86.09 -6.91,-276.44 -7.12,-278.35 -0.18,-1.75 0.44,-3.48 1.72,-4.67 1.04,-1.01 2.44,-1.56 3.87,-1.56"
             style="fill:#c0203b;fill-opacity:1;fill-rule:nonzero;stroke:none"
             id="path368" />
          <path
             d="m 1683.49,1336.32 c 1.13,0 2.26,0.33 3.26,1.03 93.74,66.34 291.41,50.13 293.37,49.95 3.14,-0.46 5.81,2.03 6.08,5.12 0.27,3.09 -2.01,5.81 -5.11,6.08 -8.26,0.73 -203.76,16.77 -300.85,-51.97 -2.54,-1.8 -3.14,-5.3 -1.34,-7.84 1.11,-1.56 2.83,-2.37 4.59,-2.37"
             style="fill:#c0203b;fill-opacity:1;fill-rule:nonzero;stroke:none"
             id="path370" />
          <path
             d="m 1827.87,1524.44 c -2.61,0 -5.24,0.01 -7.87,0.03 0.65,15.34 1.13,30.95 1.31,46.3 18.89,1.13 37.38,2.73 55.42,4.73 -2.23,-15.69 -5.03,-32.66 -8.54,-50.27 -13.18,-0.53 -26.62,-0.79 -40.32,-0.79"
             style="fill:#e72138;fill-opacity:1;fill-rule:nonzero;stroke:none"
             id="path372" />
          <path
             d="m 1808.64,1524.61 c -6.52,0.12 -13.08,0.3 -19.72,0.54 -7.41,0.27 -14.76,0.6 -22.03,0.97 -0.29,14.2 -0.55,28.46 -0.78,42.71 0.06,0 0.12,0 0.19,0 14.78,0.15 29.35,0.6 43.68,1.31 -0.21,-15.06 -0.68,-30.42 -1.34,-45.53 m 71.09,1.14 c 3.52,17.96 6.31,35.21 8.53,51.08 78.68,9.56 148.85,26.65 208.8,46.11 2.63,-18.52 5.37,-37.56 8.18,-56.91 -64.24,-20.7 -139.29,-35.87 -225.51,-40.28"
             style="fill:#e72138;fill-opacity:1;fill-rule:nonzero;stroke:none"
             id="path374" />
          <path
             d="m 1820,1524.47 c -3.78,0.02 -7.54,0.07 -11.36,0.14 0.66,15.11 1.13,30.47 1.34,45.53 3.79,0.19 7.57,0.4 11.33,0.63 -0.18,-15.35 -0.66,-30.96 -1.31,-46.3 m 48.19,0.76 c 3.51,17.61 6.31,34.58 8.54,50.27 3.88,0.43 7.69,0.87 11.53,1.33 -2.22,-15.87 -5.01,-33.12 -8.53,-51.08 -3.82,-0.2 -7.67,-0.37 -11.54,-0.52"
             style="fill:#b11c27;fill-opacity:1;fill-rule:nonzero;stroke:none"
             id="path376" />
          <path
             d="m 2277.19,2797.53 52.12,-1065.29 c 0,0 -221.8,-159.91 -563.01,-163.41 -341.22,-3.49 -433.69,135.76 -433.69,135.76 0,0 -64.6,1042.45 -64.57,1054 0.05,14.28 5.18,356.66 500.52,348.81 495.33,-7.85 508.63,-309.87 508.63,-309.87"
             style="fill:#ef3357;fill-opacity:1;fill-rule:nonzero;stroke:none"
             id="path378" />
          <path
             d="m 2155.84,1244.13 c -18.69,109.26 -35.86,220.63 -50.6,321.9 10.7,3.45 21.08,7.05 31.18,10.78 13.19,-107.13 28.21,-220.88 43.59,-329.55 l -24.17,-3.13"
             style="fill:#ce2d47;fill-opacity:1;fill-rule:nonzero;stroke:none"
             id="path380" />
          <path
             d="m 2105.24,1566.03 c -2.81,19.35 -5.55,38.39 -8.18,56.91 11.15,3.62 21.98,7.33 32.41,11.08 2.26,-18.83 4.57,-37.89 6.95,-57.21 -10.1,-3.73 -20.48,-7.33 -31.18,-10.78"
             style="fill:#be1f31;fill-opacity:1;fill-rule:nonzero;stroke:none"
             id="path382" />
          <path
             d="m 2097.06,1622.94 c -21.1,148.45 -36.09,267.58 -41.72,313.26 13.98,0.06 27.96,0.13 41.94,0.2 6.74,-78.78 18.16,-185.1 32.19,-302.38 -10.43,-3.75 -21.26,-7.46 -32.41,-11.08"
             style="fill:#ce2d47;fill-opacity:1;fill-rule:nonzero;stroke:none"
             id="path384" />
          <path
             d="m 1576.5,3287.11 40.28,-213.32 295.68,-319.82 -24.33,328.07 -33.63,174.22 -278,30.85"
             style="fill:#eea88e;fill-opacity:1;fill-rule:nonzero;stroke:none"
             id="path386" />
          <path
             d="m 1625.23,3224.38 241.48,-31.38 17.9,-92.73 c -129.92,-7.54 -259.38,124.11 -259.38,124.11"
             style="fill:#c98a74;fill-opacity:1;fill-rule:nonzero;stroke:none"
             id="path388" />
          <path
             d="m 1783.85,3117.38 121.28,12.1 c 103.7,10.35 180.09,103.65 169.74,207.36 l -33.47,335.47 c -10.35,103.71 -103.66,180.09 -207.36,169.74 l -121.28,-12.1 c -103.7,-10.34 -180.07,-103.65 -169.74,-207.35 l 33.48,-335.49 c 10.34,-103.7 103.66,-180.07 207.35,-169.73"
             style="fill:#eea88e;fill-opacity:1;fill-rule:nonzero;stroke:none"
             id="path390" />
          <path
             d="m 1764.19,3491.54 c 0,-10.19 -5.64,-18.45 -12.6,-18.45 -6.96,0 -12.6,8.26 -12.6,18.45 0,10.19 5.64,18.46 12.6,18.46 6.96,0 12.6,-8.27 12.6,-18.46"
             style="fill:#19191a;fill-opacity:1;fill-rule:nonzero;stroke:none"
             id="path392" />
          <path
             d="m 1961.16,3505.04 c 0,-10.19 -5.64,-18.45 -12.6,-18.45 -6.96,0 -12.6,8.26 -12.6,18.45 0,10.19 5.64,18.46 12.6,18.46 6.96,0 12.6,-8.27 12.6,-18.46"
             style="fill:#19191a;fill-opacity:1;fill-rule:nonzero;stroke:none"
             id="path394" />
          <path
             d="m 1726.4,2643.42 -231.55,-22.67 5.85,-41.04 233.03,27.71 -7.33,36"
             style="fill:#ffffff;fill-opacity:1;fill-rule:nonzero;stroke:none"
             id="path396" />
          <path
             d="m 1950.85,2673.43 1.22,0.25 c 1.19,0.52 1.91,1.73 1.8,3.02 l -31.95,417.81 c -0.12,1.67 -1.63,3.16 -3.27,2.8 -1.67,-0.12 -2.93,-1.58 -2.79,-3.26 l 31.29,-409.2 -379.29,404.06 c -1.18,1.25 -3.08,1.28 -4.31,0.14 -1.23,-1.16 -1.29,-3.09 -0.14,-4.32 l 385.21,-410.35 2.23,-0.95"
             style="fill:#ffffff;fill-opacity:1;fill-rule:nonzero;stroke:none"
             id="path398" />
          <path
             d="m 1873.24,3282.91 c -66.04,0 -115.32,34.29 -115.97,34.75 -1.95,1.38 -2.42,4.08 -1.02,6.03 1.37,1.94 4.06,2.43 6.03,1.03 0.82,-0.58 83.39,-57.92 176.48,-20.52 2.22,0.89 4.75,-0.18 5.63,-2.41 0.89,-2.21 -0.18,-4.74 -2.41,-5.63 -23.95,-9.61 -47.23,-13.25 -68.74,-13.25"
             style="fill:#3d1e19;fill-opacity:1;fill-rule:nonzero;stroke:none"
             id="path400" />
          <path
             d="m 1912.47,3330.67 c -5.05,0 -10.1,0.93 -14.84,2.81 -11.39,4.51 -20.28,14.23 -23.79,25.97 -0.62,2.06 0.56,4.23 2.62,4.85 2.06,0.65 4.23,-0.56 4.85,-2.62 2.78,-9.34 10.15,-17.36 19.19,-20.95 9.05,-3.58 19.92,-2.8 28.35,2.09 3.03,1.75 5.22,3.74 6.51,5.91 1.73,2.88 2.34,6.81 1.89,12.03 -0.95,10.78 -5.44,21.29 -9.78,31.46 l -1.6,3.76 c -17.98,42.65 -29,87.67 -32.76,133.81 -0.17,2.14 1.43,4.02 3.58,4.2 2.05,0.12 4.02,-1.42 4.2,-3.58 3.68,-45.31 14.5,-89.52 32.16,-131.4 l 1.59,-3.72 c 4.58,-10.74 9.31,-21.83 10.37,-33.84 0.61,-6.92 -0.37,-12.39 -2.96,-16.72 -1.98,-3.32 -5.11,-6.23 -9.29,-8.66 -6.2,-3.58 -13.24,-5.4 -20.29,-5.4"
             style="fill:#b5674f;fill-opacity:1;fill-rule:nonzero;stroke:none"
             id="path402" />
          <path
             d="m 2066.09,3648.64 c 0,0 -79.69,102.55 -135.36,125.99 0,0 38.09,-224.63 -237.33,-280.79 0,0 29.31,49.32 14.66,96.2 0,0 12.71,-164.12 -168.71,-200.73 0,0 3.16,92.02 -39.32,125.86 -42.48,33.85 -65.93,224.29 29.3,259.46 0,0 -26.37,10.25 -38.09,13.18 0,0 37.28,32.23 73.58,20.51 0,0 -1.8,41.02 20.18,60.06 0,0 4.68,-16.11 26.52,-16.11 21.82,0 232.9,98.16 375.67,26.37 142.78,-71.78 136.62,-171.41 78.9,-230"
             style="fill:#1a1d22;fill-opacity:1;fill-rule:nonzero;stroke:none"
             id="path404" />
          <path
             d="m 1498.42,3394.22 c 3.36,-33.74 33.44,-58.36 67.18,-54.99 33.73,3.36 58.35,33.44 54.98,67.17 -3.36,33.74 -33.44,58.36 -67.17,54.99 -33.74,-3.37 -58.35,-33.44 -54.99,-67.17"
             style="fill:#eea88e;fill-opacity:1;fill-rule:nonzero;stroke:none"
             id="path406" />
          <path
             d="m 1562.66,3355.04 c 1,0 1.98,0.51 2.54,1.43 0.86,1.42 0.41,3.24 -1.01,4.09 -17.61,10.61 -27.19,23.03 -28.44,36.9 -2.17,24.25 21.58,45.42 21.82,45.63 1.23,1.09 1.35,2.97 0.26,4.21 -1.08,1.24 -2.95,1.34 -4.2,0.27 -1.07,-0.95 -26.25,-23.43 -23.81,-50.64 1.44,-15.88 11.96,-29.82 31.3,-41.48 l 1.54,-0.41"
             style="fill:#b5674f;fill-opacity:1;fill-rule:nonzero;stroke:none"
             id="path408" />
          <path
             d="m 1580.56,3378.46 0.92,0.15 c 1.56,0.51 2.42,2.17 1.91,3.74 -4.22,13.13 -11.22,21.83 -20.8,25.88 -14.99,6.31 -30.41,-1.18 -31.05,-1.49 -1.47,-0.73 -2.07,-2.51 -1.35,-3.98 0.72,-1.51 2.55,-2.1 3.98,-1.36 0.16,0.07 13.72,6.61 26.15,1.34 7.87,-3.36 13.74,-10.83 17.41,-22.21 0.41,-1.27 1.58,-2.07 2.83,-2.07"
             style="fill:#b5674f;fill-opacity:1;fill-rule:nonzero;stroke:none"
             id="path410" />
          <path
             d="m 2026.64,3566.01 c -2.63,0 -5.19,1.37 -6.61,3.8 -21.53,37.09 -73.23,34.03 -73.77,33.98 -4.05,-0.25 -7.84,2.88 -8.15,7.09 -0.29,4.2 2.87,7.85 7.07,8.14 2.51,0.19 61.7,3.86 88.07,-41.54 2.11,-3.65 0.87,-8.32 -2.78,-10.44 -1.21,-0.69 -2.53,-1.03 -3.83,-1.03"
             style="fill:#1a1d22;fill-opacity:1;fill-rule:nonzero;stroke:none"
             id="path412" />
          <path
             d="m 1605.17,3135.25 c 0,0 212.2,-428.55 171.82,-997.45 -40.37,-568.9 31.96,-1466.519 31.96,-1466.519 0,0 -250.6,-40.742 -617.23,45.828 0,0 96.75,1232.111 40.74,1718.491 -56.02,486.38 73.27,648.14 372.71,699.65"
             style="fill:#ffffff;fill-opacity:1;fill-rule:nonzero;stroke:none"
             id="path414" />
          <path
             d="m 1367.5,1661.4 v -5 h 330.49 v -55.22 H 1372.5 v 60.22 h -5 v -5 5 h -5 v -70.22 h 345.49 v 75.22 H 1362.5 v -5 h 5"
             style="fill:#d3d4d3;fill-opacity:1;fill-rule:nonzero;stroke:none"
             id="path416" />
          <path
             d="m 1244.06,2287.1 c -2.66,53.03 -6.33,101.69 -11.17,144.66 4.84,-42.97 8.51,-91.65 11.18,-144.66 h -0.01"
             style="fill:#acc6cd;fill-opacity:1;fill-rule:nonzero;stroke:none"
             id="path418" />
          <path
             d="m 1247.82,2187.39 c -0.92,34.61 -2.16,67.94 -3.76,99.71 h 0.01 c 1.43,-28.36 2.57,-57.91 3.45,-88.56 h -0.01 c 0.11,-3.7 0.21,-7.42 0.31,-11.15 v 0"
             style="fill:#100f0d;fill-opacity:1;fill-rule:nonzero;stroke:none"
             id="path420" />
        </g>
      </g>
      <g
         id="g422">
        <g
           id="g424"
           clip-path="url(#clipPath428)">
          <g
             id="g430"
             clip-path="url(#clipPath434)">
            <path
               d="m 1248,2180 h 1 v -42 h -1 z m -1,8 h 1 v -8 h -1 z"
               style="fill:url(#linearGradient440);fill-opacity:1;fill-rule:nonzero;stroke:none"
               id="path442" />
          </g>
        </g>
      </g>
      <g
         id="g444">
        <g
           id="g446"
           clip-path="url(#clipPath450)">
          <path
             d="m 1232.89,2431.81 c -0.02,0.15 -0.03,0.3 -0.05,0.45 0.02,-0.15 0.03,-0.3 0.05,-0.45 m -0.05,0.45 c -0.04,0.32 -0.07,0.63 -0.11,0.95 0.03,-0.3 0.07,-0.65 0.11,-0.95 m -0.11,0.97 c -0.02,0.13 -0.03,0.26 -0.05,0.39 0.02,-0.15 0.03,-0.24 0.05,-0.39 m -0.06,0.52 c -0.03,0.28 -0.06,0.54 -0.09,0.82 0.03,-0.27 0.06,-0.55 0.09,-0.82 m -0.12,1.04 c -0.01,0.07 -0.02,0.14 -0.02,0.21 0,-0.06 0.01,-0.15 0.02,-0.21 m -0.05,0.41 c -0.01,0.13 -0.03,0.27 -0.04,0.4 v 0 0 c 0.01,-0.15 0.03,-0.25 0.04,-0.4"
             style="fill:#acc6cd;fill-opacity:1;fill-rule:nonzero;stroke:none"
             id="path452" />
          <path
             d="m 1575.04,2164 -327.53,34.54 c -0.87,30.65 -2.01,60.2 -3.44,88.56 v 0 c -2.67,53.01 -6.34,101.69 -11.18,144.66 0,0.02 0,0.04 0,0.05 -0.02,0.15 -0.03,0.3 -0.05,0.45 v 0 c -0.04,0.3 -0.08,0.65 -0.11,0.95 0,0.01 0,0.01 0,0.02 -0.02,0.15 -0.03,0.24 -0.05,0.39 0,0.04 -0.01,0.09 -0.01,0.13 -0.03,0.27 -0.06,0.55 -0.09,0.82 -0.01,0.07 -0.02,0.15 -0.03,0.22 -0.01,0.06 -0.02,0.15 -0.02,0.21 -0.01,0.07 -0.02,0.13 -0.03,0.2 -0.01,0.15 -0.03,0.25 -0.04,0.4 v 0 c -4.04,35.06 -7,68.24 -9.12,100.01 l 271.51,58.69 c 0,0 -129.01,-226.54 149.95,-226.53 0.7,0 1.43,0.01 2.13,0.01 0.64,0 1.25,0 1.88,0 197.83,0 35.92,-129.3 -73.77,-203.78"
             style="fill:#d3d4d3;fill-opacity:1;fill-rule:nonzero;stroke:none"
             id="path454" />
        </g>
      </g>
      <g
         id="g456">
        <g
           id="g458"
           clip-path="url(#clipPath462)">
          <g
             id="g464"
             clip-path="url(#clipPath468)">
            <path
               d="m 1249,2085 h 1 v -23 h -1 z m 0,9 v 37 h -1 v 8 h 1 v -6 h 1 v -39"
               style="fill:url(#linearGradient474);fill-opacity:1;fill-rule:nonzero;stroke:none"
               id="path476" />
          </g>
        </g>
      </g>
      <g
         id="g478">
        <g
           id="g480"
           clip-path="url(#clipPath484)">
          <path
             d="m 1249.61,2084.01 c -0.03,3.34 -0.07,6.68 -0.1,10 h 0.01 c 0.04,-3.32 0.07,-6.67 0.1,-10 h -0.01"
             style="fill:#d3d4d3;fill-opacity:1;fill-rule:nonzero;stroke:none"
             id="path486" />
        </g>
      </g>
      <g
         id="g488">
        <g
           id="g490"
           clip-path="url(#clipPath494)">
          <g
             id="g496"
             clip-path="url(#clipPath500)">
            <path
               d="m 1248,1849 v 49 h 1 v 165 h 1 v -166 h -1 v -48"
               style="fill:url(#linearGradient506);fill-opacity:1;fill-rule:nonzero;stroke:none"
               id="path508" />
          </g>
        </g>
      </g>
      <g
         id="g510">
        <g
           id="g512"
           clip-path="url(#clipPath516)">
          <path
             d="m 1768.09,1958.92 c 1.65,51.96 3.95,102.41 7.02,150.78 l 140.53,-100.53 c 0.03,-1.43 0.06,-2.86 0.09,-4.29 0.15,-6.7 0.82,-14.29 5.27,-18.95 -0.42,-4.79 -0.83,-9.57 -1.24,-14.36 -34.98,-2.08 -88.08,-5.9 -151.67,-12.65"
             style="fill:#ce2d47;fill-opacity:1;fill-rule:nonzero;stroke:none"
             id="path518" />
          <path
             d="m 1248.34,1849.09 c 1.29,73.27 1.84,145.11 1.44,213.73 -0.05,7.08 -0.1,14.17 -0.16,21.19 -0.03,3.33 -0.06,6.68 -0.1,10 -0.16,15.15 -0.36,30.15 -0.62,44.93 l 245.95,-26.23 c 0,0 35.82,21.17 80.19,51.29 l 145.62,-15.35 54.45,-38.95 c -3.07,-48.37 -5.37,-98.82 -7.02,-150.78 -148.43,-15.73 -354.02,-47.37 -519.75,-109.83"
             style="fill:#d3d4d3;fill-opacity:1;fill-rule:nonzero;stroke:none"
             id="path520" />
          <path
             d="m 1247.82,2187.39 c -0.1,3.73 -0.2,7.45 -0.31,11.15 v 0 c 0.12,-3.67 0.22,-7.45 0.32,-11.15 h -0.01"
             style="fill:#100f0d;fill-opacity:1;fill-rule:nonzero;stroke:none"
             id="path522" />
        </g>
      </g>
      <g
         id="g524">
        <g
           id="g526"
           clip-path="url(#clipPath530)">
          <g
             id="g532"
             clip-path="url(#clipPath536)">
            <path
               d="m 1248,2138 v 42 h -1 v 8 h 1 v -7 h 1 v -43"
               style="fill:url(#linearGradient542);fill-opacity:1;fill-rule:nonzero;stroke:none"
               id="path544" />
          </g>
        </g>
      </g>
      <g
         id="g546">
        <g
           id="g548"
           clip-path="url(#clipPath552)">
          <path
             d="m 1494.85,2112.71 -245.95,26.23 c -0.29,16.44 -0.64,32.52 -1.07,48.45 -0.1,3.7 -0.2,7.48 -0.31,11.15 L 1575.04,2164 c -44.37,-30.12 -80.19,-51.29 -80.19,-51.29"
             style="fill:#a9adac;fill-opacity:1;fill-rule:nonzero;stroke:none"
             id="path554" />
          <path
             d="m 1884.61,3100.27 c 0,0 104.79,-28.14 128.89,-196.91 24.11,-168.77 74.74,-680.93 77.15,-860.02 2.41,-179.08 118.14,-1075.942 173.59,-1290.508 0,0 159.12,21.699 277.26,72.328 0,0 -178.41,810.06 -190.47,1034.28 -12.05,224.21 -43.39,723.27 -45.8,846.22 -2.42,122.96 -58.97,347.64 -351.35,435.41 0,0 -21.01,-8.51 -41.42,-10.7 l -33,-3.45 5.15,-26.65"
             style="fill:#ffffff;fill-opacity:1;fill-rule:nonzero;stroke:none"
             id="path556" />
          <path
             d="m 2208.62,1713.04 0.71,-4.95 129.06,18.39 8.82,-40.3 -129.67,-12.64 -3.94,39.99 -4.98,-0.49 0.71,-4.95 -0.71,4.95 -4.97,-0.49 4.92,-49.93 150.82,14.7 -13.22,60.37 -142.99,-20.37 0.47,-4.77 4.97,0.49"
             style="fill:#d3d4d3;fill-opacity:1;fill-rule:nonzero;stroke:none"
             id="path558" />
          <path
             d="m 1748.85,1301.74 h -0.01 c -2.38,0 -4.32,1.95 -4.32,4.34 0.07,71.08 -1.52,154.71 -3.21,243.25 -2.85,149.73 -5.8,304.55 -1.16,419.46 7.18,177.97 9.4,278.71 -23.49,447.84 -31.86,163.88 -171.25,382.67 -172.66,384.87 -1.01,1.57 -0.89,3.62 0.29,5.07 l 61.61,75.42 -89.07,10.08 c -2.28,0.26 -3.97,2.26 -3.84,4.55 l 12.57,222.49 c 0.14,2.39 2.16,4.02 4.58,4.07 2.39,-0.13 4.21,-2.18 4.08,-4.57 l -12.35,-218.39 92.9,-10.52 c 1.57,-0.18 2.93,-1.2 3.53,-2.67 0.59,-1.47 0.34,-3.15 -0.66,-4.37 l -64.67,-79.15 c 16.07,-25.61 141.93,-229.61 172.19,-385.22 33.07,-170.08 30.85,-271.22 23.65,-449.84 -4.63,-114.67 -1.69,-269.35 1.16,-418.95 1.69,-88.59 3.28,-172.27 3.21,-243.42 0,-2.39 -1.94,-4.34 -4.33,-4.34"
             style="fill:#d3d4d3;fill-opacity:1;fill-rule:nonzero;stroke:none"
             id="path560" />
          <path
             d="m 2161.83,1486.52 c -2.13,0 -3.98,1.56 -4.28,3.74 -52.58,375.96 -61.21,818.7 -36.28,996.33 23.27,165.78 3.21,345.89 0.33,369.92 l -74.68,24.78 c -1.63,0.54 -2.78,1.98 -2.95,3.68 -0.16,1.7 0.69,3.35 2.17,4.19 l 60.12,34.18 c -33.42,112.8 -134.22,207.79 -135.25,208.75 -1.74,1.62 -1.84,4.37 -0.2,6.12 1.62,1.76 4.37,1.84 6.11,0.21 1.05,-0.98 105.55,-99.46 138.61,-215.98 0.54,-1.92 -0.29,-3.96 -2.02,-4.95 l -54.63,-31.05 68.05,-22.58 c 1.57,-0.52 2.71,-1.9 2.92,-3.55 0.26,-1.95 25.02,-196.62 0,-374.93 -24.85,-177.04 -16.2,-618.68 36.26,-993.93 0.35,-2.36 -1.31,-4.56 -3.68,-4.88 l -0.6,-0.05"
             style="fill:#d3d4d3;fill-opacity:1;fill-rule:nonzero;stroke:none"
             id="path562" />
          <path
             d="m 2189.53,2296.53 c -29.66,0 -56.06,13.02 -78.57,38.77 -1.57,1.8 -1.39,4.54 0.41,6.11 1.79,1.57 4.53,1.39 6.11,-0.41 22.32,-25.55 48.69,-37.52 78.24,-35.61 40.29,2.63 76.49,30.95 89.34,50.22 16.72,25.08 -1.67,163.42 -10.94,219.58 l -139.81,-7.23 c -2.31,0.04 -4.43,1.72 -4.55,4.1 -0.12,2.39 1.72,4.42 4.1,4.55 l 143.68,7.42 c 2.22,0.03 4.13,-1.44 4.49,-3.6 1.36,-7.98 32.75,-195.86 10.25,-229.62 -12.89,-19.32 -50.34,-51.09 -95.99,-54.06 -2.27,-0.14 -4.51,-0.22 -6.76,-0.22"
             style="fill:#d3d4d3;fill-opacity:1;fill-rule:nonzero;stroke:none"
             id="path564" />
          <path
             d="m 2131.05,2528.94 c -2.23,0 -4.12,1.72 -4.31,3.98 -0.2,2.38 1.57,4.47 3.96,4.67 4.24,0.35 104.72,8.68 153.64,5.19 2.39,-0.17 4.18,-2.24 4.01,-4.63 -0.17,-2.38 -2.34,-4.12 -4.64,-4.01 -48.21,3.45 -151.26,-5.09 -152.29,-5.19 l -0.37,-0.01"
             style="fill:#d3d4d3;fill-opacity:1;fill-rule:nonzero;stroke:none"
             id="path566" />
          <path
             d="m 3224.44,3206.38 c -1.34,0 -2.65,0.62 -3.5,1.79 -103.17,142.06 -287.37,150.49 -289.22,150.55 -2.39,0.09 -4.26,2.1 -4.17,4.48 0.1,2.35 2,4.18 4.33,4.18 h 0.16 c 1.89,-0.08 190.29,-8.69 295.91,-154.12 1.4,-1.94 0.97,-4.65 -0.96,-6.05 l -2.55,-0.83"
             style="fill:#d3d4d3;fill-opacity:1;fill-rule:nonzero;stroke:none"
             id="path568" />
          <path
             d="m 1753.61,2512.58 c -6.55,-2.74 -11.46,-2.85 -11.82,-2.85 -3.37,-0.03 -6.12,2.66 -6.16,6.02 -0.03,3.35 2.65,6.13 5.97,6.16 0.7,0.01 11.67,0.64 21.3,12.87 11.77,14.86 22.67,48.24 7.72,122.82 -21.01,104.78 -55.49,248.31 -112.08,284.93 -12.21,7.9 -24.61,10.27 -37.89,7.25 -64.25,-14.56 -60.96,-111.8 -58.09,-205.85 0.6,-19.35 1.18,-38.5 1.16,-56.69 -0.09,-110.81 6.83,-147.36 89.49,-156.02 3.35,-0.36 5.77,-3.34 5.42,-6.7 -0.35,-3.33 -3.32,-5.8 -6.7,-5.41 -96.24,10.08 -100.47,61.7 -100.38,168.14 0.01,18.07 -0.57,37.09 -1.16,56.3 -3.03,98.98 -6.17,201.35 67.56,218.11 16.42,3.74 32.32,0.75 47.21,-8.9 60.45,-39.13 95.95,-185.83 117.4,-292.76 12.84,-64 9.3,-108.84 -10.49,-133.27 -6.18,-7.62 -12.91,-11.83 -18.46,-14.15"
             style="fill:#211d1d;fill-opacity:1;fill-rule:nonzero;stroke:none"
             id="path570" />
          <path
             d="m 1727.14,2530.03 c -5.48,1.59 -11.32,2.46 -16.51,0.34 -5.19,-2.12 -9.49,-7.94 -8.97,-14.5 0.54,-6.95 6.23,-12.38 12.06,-13.91 5.82,-1.53 11.76,-0.04 17.47,1.43 2.04,0.53 4.08,1.06 6.13,1.59 3.06,0.79 6.2,1.62 8.76,3.68 13.72,11.03 -12.28,19.44 -18.94,21.37"
             style="fill:#211d1d;fill-opacity:1;fill-rule:nonzero;stroke:none"
             id="path572" />
          <path
             d="m 1636.85,2514.24 c 5.39,-2.04 11.18,-3.41 16.51,-1.75 5.32,1.67 9.98,7.1 9.87,13.67 -0.12,6.95 -5.48,12.83 -11.22,14.84 -5.74,2.01 -11.76,1.04 -17.58,0.06 -2.07,-0.35 -4.15,-0.7 -6.23,-1.06 -3.11,-0.52 -6.3,-1.08 -8.99,-2.92 -14.41,-9.8 11.1,-20.36 17.64,-22.84"
             style="fill:#211d1d;fill-opacity:1;fill-rule:nonzero;stroke:none"
             id="path574" />
          <path
             d="m 2201.64,2662.49 -1.68,-0.43 c -3.33,-0.37 -6.35,2.03 -6.73,5.38 -24.47,217.12 -84.88,333.49 -131.25,392.88 -49.98,64.02 -94.72,77.22 -95.17,77.34 -3.22,0.91 -5.11,4.27 -4.22,7.5 0.92,3.24 4.26,5.12 7.48,4.24 7.63,-2.1 187.46,-56.41 235.27,-480.61 0.31,-2.75 -1.26,-5.28 -3.7,-6.3"
             style="fill:#211d1d;fill-opacity:1;fill-rule:nonzero;stroke:none"
             id="path576" />
          <path
             d="m 2159.44,2652.8 c -4.84,-2.02 -8.61,-4.28 -11.62,-8.63 -5.32,-7.72 -7.85,-18.89 -1.48,-26.43 4.4,-5.2 12.24,-7.29 19.35,-8.64 19.31,-3.71 35.61,-3.47 49.81,0.72 16.63,4.91 30.06,15.83 36.08,29.29 2.61,5.79 3.55,13.29 -0.24,17.01 -1.65,1.62 -4.23,2.64 -7.59,3.67 -24.1,7.38 -49.76,6.06 -76.29,-3.93 l -2.32,-0.87 c -2.05,-0.75 -3.95,-1.46 -5.7,-2.19 z m 67.54,-51.81 c -2.59,-1.09 -5.28,-2.04 -8.03,-2.85 -16.11,-4.76 -34.28,-5.09 -55.56,-1.01 -9.18,1.76 -19.5,4.66 -26.36,12.75 -10.51,12.46 -7.18,29.67 0.77,41.2 6.27,9.11 14.8,12.3 23.1,15.33 l 2.28,0.85 c 28.69,10.8 57.78,12.25 84.15,4.18 v -0.01 c 4.38,-1.34 8.93,-3.07 12.54,-6.62 8.51,-8.36 7.05,-21.34 2.84,-30.69 -6.44,-14.35 -19.48,-26.33 -35.73,-33.13"
             style="fill:#211d1d;fill-opacity:1;fill-rule:nonzero;stroke:none"
             id="path578" />
          <path
             d="m 2225.9,2631.74 c -15.91,-6.65 -33.07,-10.33 -50.28,-10.74 -3.37,-0.08 -6.15,2.58 -6.23,5.94 -0.09,3.37 2.55,6.16 5.94,6.23 19.49,0.47 38.91,5.53 56.18,14.68 2.75,1.59 6.65,0.44 8.22,-2.53 1.58,-2.97 0.45,-6.66 -2.52,-8.24 -3.69,-1.94 -7.47,-3.73 -11.31,-5.34"
             style="fill:#211d1d;fill-opacity:1;fill-rule:nonzero;stroke:none"
             id="path580" />
          <path
             d="m 1601.6,3154.16 -2.25,11.95 c -39.01,-46.43 15.45,-204.51 17.85,-211.39 0.63,-1.77 2.3,-2.89 4.09,-2.89 l 1.43,0.24 c 2.26,0.79 3.45,3.25 2.66,5.52 -0.54,1.56 -50.64,146.82 -23.78,196.57"
             style="fill:#211d1d;fill-opacity:1;fill-rule:nonzero;stroke:none"
             id="path582" />
          <path
             d="m 1916.71,1935.9 c 169.98,0.03 339.74,1.3 509.69,3.82 24.23,251.84 48.8,503.64 73.94,755.39 -170.17,30.01 -339.94,61.2 -509.67,93.62 -24.98,-284.25 -49.62,-568.53 -73.96,-852.83"
             style="fill:#2c3a92;fill-opacity:1;fill-rule:nonzero;stroke:none"
             id="path584" />
          <path
             d="m 1922.56,2004.22 -6.92,4.95 c -0.21,11.43 -0.24,22.86 -0.03,34.29 0.66,35.82 3.68,71.93 14.33,106.14 2,6.44 4.27,12.77 6.76,19.02 -4.72,-54.8 -9.44,-109.6 -14.14,-164.4"
             style="fill:#ce2d47;fill-opacity:1;fill-rule:nonzero;stroke:none"
             id="path586" />
          <path
             d="m 1921,1985.93 c -4.45,4.66 -5.12,12.25 -5.27,18.95 -0.03,1.43 -0.06,2.86 -0.09,4.29 l 6.92,-4.95 c -0.52,-6.09 -1.04,-12.2 -1.56,-18.29"
             style="fill:#a6283b;fill-opacity:1;fill-rule:nonzero;stroke:none"
             id="path588" />
          <path
             d="m 2027.76,1968.38 c -5.77,0 -11.54,0.31 -17.23,0.86 -25.2,2.45 -49.84,9.11 -75.03,11.66 -4.36,0.45 -8.96,0.84 -12.55,3.35 -0.72,0.51 -1.37,1.07 -1.95,1.68 0.52,6.09 1.04,12.2 1.56,18.29 4.7,54.8 9.42,109.6 14.14,164.4 13.74,34.42 34.35,65.98 56.24,96.05 11.97,16.45 24.59,32.79 40.78,45.09 9.95,7.57 29.53,19.16 45.27,19.16 4.12,0 7.97,-0.8 11.32,-2.67 16.4,-9.14 23.95,-39.31 23.31,-56.15 -0.36,-9.16 -2.46,-18.48 -0.29,-27.39 4.85,-20 28.72,-30.07 35.84,-49.38 6.93,-18.78 -4.23,-39.26 -17.02,-54.65 -8.33,-10.02 -18.14,-20.99 -17.04,-33.96 1.44,-16.86 21.22,-30.63 16.16,-46.78 -4.42,-14.1 -25.12,-17.94 -29.29,-32.12 -1.88,-6.4 0.23,-13.31 -0.64,-19.93 -1.29,-9.92 -9.06,-17.82 -17.49,-23.22 -16.5,-10.59 -36.3,-14.29 -56.09,-14.29"
             style="fill:#2a3377;fill-opacity:1;fill-rule:nonzero;stroke:none"
             id="path590" />
          <path
             d="m 2240.25,2544.98 c -64.79,6.73 -119.76,-46.45 -122.53,-118.54 -2.77,-72.09 47.96,-129.32 113.08,-127.57 65.11,1.74 120.07,54.92 122.51,118.53 2.44,63.61 -48.27,120.84 -113.06,127.58 z m -10.02,-260.89 c -72.96,-2.53 -129.78,61.57 -126.66,142.89 3.12,81.33 64.68,140.89 137.24,132.78 72.56,-8.11 129.37,-72.22 126.65,-142.9 -2.71,-70.69 -64.27,-130.25 -137.23,-132.77"
             style="fill:#ffffff;fill-opacity:1;fill-rule:nonzero;stroke:none"
             id="path592" />
          <path
             d="m 2328.02,2445.03 c -25.87,1.38 -38.8,2.06 -64.66,3.44 1.03,26.66 1.53,39.98 2.56,66.63 -21.38,1.91 -32.07,2.87 -53.45,4.77 -1.05,-27.41 -1.57,-41.13 -2.62,-68.55 -25.87,1.38 -38.8,2.07 -64.67,3.45 -0.9,-23.47 -1.35,-35.2 -2.25,-58.67 25.9,-0.6 38.84,-0.91 64.74,-1.52 -1.06,-27.42 -1.58,-41.13 -2.64,-68.55 21.47,0.27 32.2,0.4 53.66,0.66 1.02,26.65 1.54,39.98 2.55,66.63 25.9,-0.61 38.84,-0.91 64.74,-1.52 0.81,21.29 1.22,31.94 2.04,53.23"
             style="fill:#ffffff;fill-opacity:1;fill-rule:nonzero;stroke:none"
             id="path594" />
          <path
             d="m 2118.13,2691.27 c 96.7,-16.64 145.03,-24.71 241.72,-40.32 4.24,44.25 6.37,66.32 10.63,110.33 -96.69,18.27 -145.02,27.67 -241.71,46.97 -4.26,-46.67 -6.38,-70.07 -10.64,-116.98"
             style="fill:#f4f6f5;fill-opacity:1;fill-rule:nonzero;stroke:none"
             id="path596" />
          <path
             d="m 892.418,2313.96 379.382,625.39 c 28.71,47.32 78.34,79.52 133.25,86.5 69.55,8.85 76.9,-28.91 89.4,-88.13 10.18,-48.2 37.46,-91.24 49.95,-138.9 11.69,-44.59 9.32,-92.54 -5.55,-136.1 -14.69,-43.03 -45,-64.1 -68.34,-100.41 -37.53,-58.36 -72.09,-118.83 -108.08,-178.16 l 567.83,-32.68 c 0,0 61.6,-149.32 -21.01,-364.85 l -871.12,50.12 c -63.997,3.7 -121.396,40.65 -151.235,97.41 -29.825,56.74 -27.739,124.98 5.523,179.81"
             style="fill:#ffffff;fill-opacity:1;fill-rule:nonzero;stroke:none"
             id="path598" />
          <path
             d="m 2016.06,2355.55 c 22.68,-1.61 46.35,-3.69 65.63,-15.74 19.27,-12.06 32.26,-37.42 22.84,-58.12 -4.89,-10.74 -15.23,-19.65 -15.21,-31.46 0.04,-14.85 15.85,-23.8 24.98,-35.53 16.75,-21.51 9.17,-55.15 -10.9,-73.62 -6.63,-6.1 -14.88,-11.73 -16.86,-20.53 -4.4,-19.49 25.03,-34.8 20.31,-54.22 -3.63,-14.86 -24.99,-19.64 -29,-34.4 -2.17,-8.01 1.57,-16.4 1.35,-24.7 -0.37,-13.91 -12.15,-25.43 -25.3,-29.98 -13.15,-4.55 -27.48,-3.62 -41.37,-2.65 -21.84,1.55 -43.68,3.09 -65.52,4.63 -12.87,0.92 -26.11,1.92 -37.73,7.55 -25.02,12.13 -35.59,41.63 -42.6,68.55 -13.42,51.51 -22.45,104.99 -16.77,157.91 4.64,43.16 19.84,89.18 49.19,122.07 26.83,30.05 80.02,22.86 116.96,20.24"
             style="fill:#eea88e;fill-opacity:1;fill-rule:nonzero;stroke:none"
             id="path600" />
          <path
             d="m 1216.15,2317.51 c -1.48,0 -2.91,0.76 -3.73,2.12 -1.22,2.05 -0.55,4.71 1.51,5.94 45.9,27.38 95.5,47.66 147.45,60.28 2.31,0.58 4.67,-0.86 5.23,-3.18 0.57,-2.33 -0.86,-4.66 -3.19,-5.23 -51.09,-12.41 -99.9,-32.37 -145.06,-59.32 l -2.21,-0.61"
             style="fill:#d3d4d3;fill-opacity:1;fill-rule:nonzero;stroke:none"
             id="path602" />
          <path
             d="m 1246.46,2291.98 c -1.34,0 -2.65,0.62 -3.5,1.79 -1.41,1.93 -0.98,4.64 0.96,6.05 36.14,26.28 75.56,47.93 117.15,64.36 2.22,0.91 4.74,-0.19 5.62,-2.43 0.87,-2.23 -0.21,-4.74 -2.45,-5.62 -40.9,-16.16 -79.67,-37.47 -115.23,-63.32 l -2.55,-0.83"
             style="fill:#d3d4d3;fill-opacity:1;fill-rule:nonzero;stroke:none"
             id="path604" />
          <path
             d="m 1778.31,1999.62 c -1.52,0 -3,0.8 -3.79,2.24 -0.77,1.4 -76.13,141.9 20.25,344.3 1.03,2.15 3.63,3.08 5.77,2.05 2.16,-1.03 3.08,-3.61 2.05,-5.77 -94.36,-198.16 -21.24,-335.03 -20.49,-336.39 1.15,-2.09 0.39,-4.73 -1.7,-5.89 l -2.09,-0.54"
             style="fill:#d3d4d3;fill-opacity:1;fill-rule:nonzero;stroke:none"
             id="path606" />
        </g>
      </g>
    </g>
  </g>
</svg>
